<?xml version="1.0" encoding="UTF-8"?>
<!DOCTYPE svg PUBLIC "-//W3C//DTD SVG 1.1//EN" "http://www.w3.org/Graphics/SVG/1.1/DTD/svg11.dtd">
<svg xmlns="http://www.w3.org/2000/svg" version="1.1" width="250px" height="200px" style="shape-rendering:geometricPrecision; text-rendering:geometricPrecision; image-rendering:optimizeQuality; fill-rule:evenodd; clip-rule:evenodd" xmlns:xlink="http://www.w3.org/1999/xlink">
<g><path style="opacity:1" fill="#fefefe" d="M -0.5,-0.5 C 82.8333,-0.5 166.167,-0.5 249.5,-0.5C 249.5,66.1667 249.5,132.833 249.5,199.5C 166.167,199.5 82.8333,199.5 -0.5,199.5C -0.5,132.833 -0.5,66.1667 -0.5,-0.5 Z"/></g>
<g><path style="opacity:1" fill="#363636" d="M 132.5,91.5 C 138.678,92.8174 145.012,92.8174 151.5,91.5C 151.376,90.8933 151.043,90.56 150.5,90.5C 148.989,86.5115 147.822,82.5115 147,78.5C 150.546,83.7551 153.712,89.2551 156.5,95C 146.312,97.2933 135.979,97.96 125.5,97C 114.468,91.9068 111.301,83.7401 116,72.5C 122.168,67.4916 121.335,66.325 113.5,69C 106.839,75.8337 101.839,83.667 98.5,92.5C 102.179,92.7244 105.846,93.0578 109.5,93.5C 104.36,94.4881 99.0262,94.8214 93.5,94.5C 92.9569,94.44 92.6236,94.1067 92.5,93.5C 95.6896,86.1171 99.1896,78.7838 103,71.5C 109.684,61.8246 118.184,59.9913 128.5,66C 131.491,68.9904 133.657,72.4904 135,76.5C 136.871,72.2581 136.871,67.9248 135,63.5C 131.919,57.6688 128.585,52.0021 125,46.5C 121.243,49.5858 118.243,53.2525 116,57.5C 115.346,58.6956 114.846,58.6956 114.5,57.5C 117.807,51.5414 121.473,45.8747 125.5,40.5C 132.233,47.6273 137.733,55.6273 142,64.5C 142.589,80.9085 134.755,87.7418 118.5,85C 121.8,90.1503 126.466,92.317 132.5,91.5 Z"/></g>
<g><path style="opacity:1" fill="#f7f7f7" d="M 122.5,67.5 C 128.374,69.2075 132.041,73.0408 133.5,79C 129.286,83.3227 124.286,84.4894 118.5,82.5C 117.348,79.8938 117.182,77.2272 118,74.5C 119.511,72.1384 121.011,69.8051 122.5,67.5 Z"/></g>
<g><path style="opacity:1" fill="#9c9c9c" d="M 150.5,90.5 C 151.043,90.56 151.376,90.8933 151.5,91.5C 145.012,92.8174 138.678,92.8174 132.5,91.5C 138.69,91.8229 144.69,91.4896 150.5,90.5 Z"/></g>
<g><path style="opacity:1" fill="#9e9e9e" d="M 109.5,93.5 C 111.288,93.2148 112.955,93.5481 114.5,94.5C 107.344,95.8188 100.344,95.8188 93.5,94.5C 99.0262,94.8214 104.36,94.4881 109.5,93.5 Z"/></g>
<g><path style="opacity:1" fill="#2c2e46" d="M 164.5,111.5 C 164.169,119.196 164.503,126.862 165.5,134.5C 166.107,134.376 166.44,134.043 166.5,133.5C 169.664,130.167 172.664,126.667 175.5,123C 178.167,122.333 180.833,122.333 183.5,123C 180.049,126.74 176.715,130.573 173.5,134.5C 177.288,139.244 180.955,144.077 184.5,149C 181.833,149.667 179.167,149.667 176.5,149C 173.955,145.41 171.288,141.91 168.5,138.5C 167.522,138.977 166.689,139.643 166,140.5C 165.502,143.482 165.335,146.482 165.5,149.5C 162.833,149.5 160.167,149.5 157.5,149.5C 157.5,136.833 157.5,124.167 157.5,111.5C 159.833,111.5 162.167,111.5 164.5,111.5 Z"/></g>
<g><path style="opacity:1" fill="#727484" d="M 164.5,111.5 C 165.167,118.833 165.833,126.167 166.5,133.5C 166.44,134.043 166.107,134.376 165.5,134.5C 164.503,126.862 164.169,119.196 164.5,111.5 Z"/></g>
<g><path style="opacity:1" fill="#262841" d="M 68.5,113.5 C 73.8437,113.334 79.1771,113.501 84.5,114C 97.442,118.617 101.275,127.451 96,140.5C 93.3025,145.436 89.1359,148.27 83.5,149C 78.5111,149.499 73.5111,149.666 68.5,149.5C 68.5,137.5 68.5,125.5 68.5,113.5 Z"/></g>
<g><path style="opacity:1" fill="#f2f2f4" d="M 75.5,119.5 C 84.8067,117.669 89.8067,121.335 90.5,130.5C 90.2204,140.154 85.2204,144.488 75.5,143.5C 75.5,135.5 75.5,127.5 75.5,119.5 Z"/></g>
<g><path style="opacity:1" fill="#272a42" d="M 109.5,122.5 C 113.514,122.334 117.514,122.501 121.5,123C 123.624,124.122 125.457,125.622 127,127.5C 127.5,134.826 127.666,142.159 127.5,149.5C 124.143,149.894 121.81,148.561 120.5,145.5C 119.636,147.197 118.303,148.363 116.5,149C 106.889,151.055 102.722,147.221 104,137.5C 108.529,133.011 114.029,131.345 120.5,132.5C 120.703,130.61 120.037,129.11 118.5,128C 114.958,127.149 111.625,127.649 108.5,129.5C 105.506,126.538 105.84,124.205 109.5,122.5 Z"/></g>
<g><path style="opacity:1" fill="#262942" d="M 135.5,122.5 C 137.5,122.5 139.5,122.5 141.5,122.5C 141.34,124.199 141.506,125.866 142,127.5C 143.5,126 145,124.5 146.5,123C 148.473,122.505 150.473,122.338 152.5,122.5C 152.5,124.833 152.5,127.167 152.5,129.5C 148.713,128.814 145.546,129.814 143,132.5C 142.501,138.157 142.334,143.824 142.5,149.5C 140.167,149.5 137.833,149.5 135.5,149.5C 135.5,140.5 135.5,131.5 135.5,122.5 Z"/></g>
<g><path style="opacity:1" fill="#e9e9ec" d="M 114.5,136.5 C 116.5,136.5 118.5,136.5 120.5,136.5C 120.68,142.82 117.68,145.32 111.5,144C 109.853,140.471 110.853,137.971 114.5,136.5 Z"/></g>
</svg>
