<?xml version="1.0" encoding="UTF-8"?>
<!DOCTYPE svg PUBLIC "-//W3C//DTD SVG 1.1//EN" "http://www.w3.org/Graphics/SVG/1.1/DTD/svg11.dtd">
<svg xmlns="http://www.w3.org/2000/svg" version="1.1" width="250px" height="200px" style="shape-rendering:geometricPrecision; text-rendering:geometricPrecision; image-rendering:optimizeQuality; fill-rule:evenodd; clip-rule:evenodd" xmlns:xlink="http://www.w3.org/1999/xlink">
<g><path style="opacity:1" fill="#091016" d="M -0.5,-0.5 C 82.8333,-0.5 166.167,-0.5 249.5,-0.5C 249.5,66.1667 249.5,132.833 249.5,199.5C 166.167,199.5 82.8333,199.5 -0.5,199.5C -0.5,132.833 -0.5,66.1667 -0.5,-0.5 Z"/></g>
<g><path style="opacity:1" fill="#d1d1d2" d="M 125.5,42.5 C 130.741,49.3041 135.241,56.6374 139,64.5C 140.654,72.2488 138.487,78.5821 132.5,83.5C 127.079,85.319 121.746,85.9857 116.5,85.5C 119.683,89.9241 124.017,91.9241 129.5,91.5C 135.678,92.8174 142.012,92.8174 148.5,91.5C 148.376,90.8933 148.043,90.56 147.5,90.5C 146.167,86.5 144.833,82.5 143.5,78.5C 147.436,83.5202 150.769,89.0202 153.5,95C 143.317,97.3428 132.983,98.0094 122.5,97C 120.359,96.4275 118.359,95.5942 116.5,94.5C 116.5,93.8333 116.167,93.5 115.5,93.5C 108.212,84.3209 108.878,75.8209 117.5,68C 115.613,67.2204 113.946,67.3871 112.5,68.5C 109.944,69.5434 107.777,71.2101 106,73.5C 102.374,79.2505 98.8742,85.0838 95.5,91C 96.2438,92.0386 97.2438,92.5386 98.5,92.5C 101.167,92.8333 103.833,93.1667 106.5,93.5C 101.025,94.4889 95.358,94.8222 89.5,94.5C 92.3246,85.1842 96.4913,76.5175 102,68.5C 109.127,61.6741 116.961,60.8408 125.5,66C 128.491,68.9904 130.657,72.4904 132,76.5C 133.57,73.3665 133.903,70.0332 133,66.5C 129.702,59.5595 126.035,52.8928 122,46.5C 118.282,49.6156 115.282,53.2823 113,57.5C 112.346,58.6956 111.846,58.6956 111.5,57.5C 114.433,51.2859 118.1,45.6192 122.5,40.5C 123.518,41.1925 124.518,41.8592 125.5,42.5 Z"/></g>
<g><path style="opacity:1" fill="#0e1319" d="M 115.5,93.5 C 112.5,93.5 109.5,93.5 106.5,93.5C 103.833,93.1667 101.167,92.8333 98.5,92.5C 97.6971,91.5768 97.5304,90.5768 98,89.5C 102.35,82.1228 107.183,75.1228 112.5,68.5C 113.946,67.3871 115.613,67.2204 117.5,68C 108.878,75.8209 108.212,84.3209 115.5,93.5 Z"/></g>
<g><path style="opacity:1" fill="#12171e" d="M 119.5,67.5 C 126.48,69.6019 129.48,74.1019 128.5,81C 124.355,83.4263 120.022,83.9263 115.5,82.5C 114.348,79.8938 114.182,77.2272 115,74.5C 116.511,72.1384 118.011,69.8051 119.5,67.5 Z"/></g>
<g><path style="opacity:1" fill="#10151c" d="M 143.5,78.5 C 144.833,82.5 146.167,86.5 147.5,90.5C 141.69,91.4896 135.69,91.8229 129.5,91.5C 124.017,91.9241 119.683,89.9241 116.5,85.5C 121.746,85.9857 127.079,85.319 132.5,83.5C 136.099,81.7371 138.932,79.0705 141,75.5C 141.377,76.9423 142.21,77.9423 143.5,78.5 Z"/></g>
<g><path style="opacity:1" fill="#24273e" d="M 112.5,68.5 C 107.183,75.1228 102.35,82.1228 98,89.5C 97.5304,90.5768 97.6971,91.5768 98.5,92.5C 97.2438,92.5386 96.2438,92.0386 95.5,91C 98.8742,85.0838 102.374,79.2505 106,73.5C 107.777,71.2101 109.944,69.5434 112.5,68.5 Z"/></g>
<g><path style="opacity:1" fill="#2c2f45" d="M 125.5,42.5 C 132.599,48.6481 137.766,56.3147 141,65.5C 141.146,70.0097 141.979,74.343 143.5,78.5C 142.21,77.9423 141.377,76.9423 141,75.5C 138.932,79.0705 136.099,81.7371 132.5,83.5C 138.487,78.5821 140.654,72.2488 139,64.5C 135.241,56.6374 130.741,49.3041 125.5,42.5 Z"/></g>
<g><path style="opacity:1" fill="#71737b" d="M 147.5,90.5 C 148.043,90.56 148.376,90.8933 148.5,91.5C 142.012,92.8174 135.678,92.8174 129.5,91.5C 135.69,91.8229 141.69,91.4896 147.5,90.5 Z"/></g>
<g><path style="opacity:1" fill="#696c74" d="M 106.5,93.5 C 109.5,93.5 112.5,93.5 115.5,93.5C 116.167,93.5 116.5,93.8333 116.5,94.5C 107.352,95.7303 98.352,95.7303 89.5,94.5C 95.358,94.8222 101.025,94.4889 106.5,93.5 Z"/></g>
<g><path style="opacity:1" fill="#d3d4d4" d="M 136.5,111.5 C 139.167,111.5 141.833,111.5 144.5,111.5C 144.334,115.846 144.501,120.179 145,124.5C 151.643,120.096 157.31,121.096 162,127.5C 162.5,134.826 162.666,142.159 162.5,149.5C 159.833,149.5 157.167,149.5 154.5,149.5C 154.666,143.158 154.5,136.825 154,130.5C 150.706,127.689 147.706,128.022 145,131.5C 144.501,137.491 144.334,143.491 144.5,149.5C 141.833,149.5 139.167,149.5 136.5,149.5C 136.5,136.833 136.5,124.167 136.5,111.5 Z"/></g>
<g><path style="opacity:1" fill="#cbcbcc" d="M 93.5,112.5 C 95.8568,112.337 98.1902,112.503 100.5,113C 102.283,118.473 100.283,120.473 94.5,119C 92.3162,117.102 91.9829,114.936 93.5,112.5 Z"/></g>
<g><path style="opacity:1" fill="#d5d6d6" d="M 73.5,113.5 C 73.5,123.5 73.5,133.5 73.5,143.5C 78.1667,143.5 82.8333,143.5 87.5,143.5C 88.4614,145.265 88.7947,147.265 88.5,149.5C 80.8333,149.5 73.1667,149.5 65.5,149.5C 65.5,137.5 65.5,125.5 65.5,113.5C 68.1667,113.5 70.8333,113.5 73.5,113.5 Z"/></g>
<g><path style="opacity:1" fill="#31373c" d="M 73.5,113.5 C 74.4938,122.986 74.8271,132.652 74.5,142.5C 79.0323,142.182 83.3656,142.515 87.5,143.5C 82.8333,143.5 78.1667,143.5 73.5,143.5C 73.5,133.5 73.5,123.5 73.5,113.5 Z"/></g>
<g><path style="opacity:1" fill="#d0d1d1" d="M 172.5,116.5 C 174.5,116.5 176.5,116.5 178.5,116.5C 178.5,118.5 178.5,120.5 178.5,122.5C 181.167,122.5 183.833,122.5 186.5,122.5C 186.5,124.5 186.5,126.5 186.5,128.5C 183.833,128.5 181.167,128.5 178.5,128.5C 178.334,133.179 178.501,137.845 179,142.5C 181.381,143.435 183.881,143.768 186.5,143.5C 186.739,145.467 186.406,147.301 185.5,149C 179.599,151.757 174.766,150.59 171,145.5C 170.501,139.843 170.334,134.176 170.5,128.5C 169.167,128.5 167.833,128.5 166.5,128.5C 168.998,124.855 170.998,120.855 172.5,116.5 Z"/></g>
<g><path style="opacity:1" fill="#d1d1d2" d="M 93.5,122.5 C 96.1667,122.5 98.8333,122.5 101.5,122.5C 101.5,131.5 101.5,140.5 101.5,149.5C 98.8333,149.5 96.1667,149.5 93.5,149.5C 93.5,140.5 93.5,131.5 93.5,122.5 Z"/></g>
<g><path style="opacity:1" fill="#d2d2d3" d="M 114.5,121.5 C 120.477,122.165 126.477,122.498 132.5,122.5C 130.272,127.118 128.772,132.118 128,137.5C 127.167,138.333 126.333,139.167 125.5,140C 121.858,140.914 118.192,141.748 114.5,142.5C 114.709,143.086 115.043,143.586 115.5,144C 120.282,144.119 124.949,144.785 129.5,146C 134.146,151.79 133.146,156.457 126.5,160C 119.665,162.268 112.998,161.935 106.5,159C 102.988,153.554 104.321,149.887 110.5,148C 106.5,145.333 106.5,142.667 110.5,140C 104.287,132.094 105.62,125.927 114.5,121.5 Z"/></g>
<g><path style="opacity:1" fill="#12171c" d="M 116.5,126.5 C 118.39,126.297 119.89,126.963 121,128.5C 121.769,131.099 121.602,133.599 120.5,136C 115,136.557 113.167,134.057 115,128.5C 115.717,127.956 116.217,127.289 116.5,126.5 Z"/></g>
<g><path style="opacity:1" fill="#151a1f" d="M 113.5,150.5 C 116.85,150.335 120.183,150.502 123.5,151C 125.592,151.953 125.925,153.286 124.5,155C 120.903,156.277 117.236,156.61 113.5,156C 111.103,154.29 111.103,152.456 113.5,150.5 Z"/></g>
</svg>
