<?xml version="1.0" encoding="UTF-8"?>
<!DOCTYPE svg PUBLIC "-//W3C//DTD SVG 1.1//EN" "http://www.w3.org/Graphics/SVG/1.1/DTD/svg11.dtd">
<svg xmlns="http://www.w3.org/2000/svg" version="1.1" width="759px" height="760px" style="shape-rendering:geometricPrecision; text-rendering:geometricPrecision; image-rendering:optimizeQuality; fill-rule:evenodd; clip-rule:evenodd" xmlns:xlink="http://www.w3.org/1999/xlink">
<g><path style="opacity:1" fill="#fefefe" d="M -0.5,-0.5 C 252.5,-0.5 505.5,-0.5 758.5,-0.5C 758.5,252.833 758.5,506.167 758.5,759.5C 505.5,759.5 252.5,759.5 -0.5,759.5C -0.5,506.167 -0.5,252.833 -0.5,-0.5 Z"/></g>
<g><path style="opacity:1" fill="#eaedf5" d="M 564.5,309.5 C 563.957,309.56 563.624,309.893 563.5,310.5C 567.194,320.302 565.528,328.969 558.5,336.5C 557.609,335.89 556.609,335.557 555.5,335.5C 562.974,326.938 564.474,317.271 560,306.5C 558.951,304.382 557.451,302.716 555.5,301.5C 554.327,299.496 552.66,297.996 550.5,297C 546.943,295.592 543.276,294.592 539.5,294C 522.167,293.333 504.833,293.333 487.5,294C 485.709,296.106 485.042,298.606 485.5,301.5C 485.667,326.502 485.5,351.502 485,376.5C 481.86,368.909 479.027,361.243 476.5,353.5C 478.094,353.92 479.594,354.586 481,355.5C 482.261,355.241 483.261,354.574 484,353.5C 484.488,348.079 483.988,342.745 482.5,337.5C 483.951,322.898 484.784,308.231 485,293.5C 485.5,292.5 486,291.5 486.5,290.5C 491.805,289.567 496.972,289.9 502,291.5C 517.943,291.545 533.609,291.545 549,291.5C 551.895,293.608 554.561,295.941 557,298.5C 559.041,302.617 561.541,306.284 564.5,309.5 Z"/></g>
<g><path style="opacity:1" fill="#e5eaf4" d="M 353.5,300.5 C 352.168,309.475 351.502,318.809 351.5,328.5C 351.667,337.833 351.833,347.167 352,356.5C 352.414,356.957 352.914,357.291 353.5,357.5C 354.5,339.179 354.833,320.845 354.5,302.5C 354.85,320.114 356.35,337.781 359,355.5C 360.109,357.815 361.943,359.315 364.5,360C 370.348,360.173 376.015,360.673 381.5,361.5C 371.161,361.666 360.828,361.5 350.5,361C 350,360.5 349.5,360 349,359.5C 348.832,337.663 348.332,315.996 347.5,294.5C 338.343,293.342 329.009,293.176 319.5,294C 318.956,294.717 318.289,295.217 317.5,295.5C 318.055,293.271 319.389,291.605 321.5,290.5C 328.156,291.187 334.99,291.187 342,290.5C 345.598,291.088 349.098,292.088 352.5,293.5C 353.474,295.743 353.808,298.076 353.5,300.5 Z"/></g>
<g><path style="opacity:1" fill="#e3e8f3" d="M 252.5,293.5 C 230.831,293.333 209.164,293.5 187.5,294C 186.278,296.942 184.445,299.442 182,301.5C 172.853,330.776 163.019,359.776 152.5,388.5C 151.975,389.192 151.308,389.692 150.5,390C 140.78,389.855 131.446,390.689 122.5,392.5C 120.413,391.415 119.08,389.749 118.5,387.5C 128.506,387.666 138.506,387.5 148.5,387C 149,386.5 149.5,386 150,385.5C 159.793,357.584 169.293,329.584 178.5,301.5C 179.283,299.657 179.95,297.657 180.5,295.5C 180.291,294.914 179.957,294.414 179.5,294C 170.84,293.5 162.173,293.334 153.5,293.5C 162.155,292.525 170.989,291.859 180,291.5C 204.33,292.079 228.497,292.745 252.5,293.5 Z"/></g>
<g><path style="opacity:1" fill="#edf0f5" d="M 456.5,299.5 C 454.656,300.204 454.156,301.537 455,303.5C 465.092,331.005 474.592,358.672 483.5,386.5C 483.43,387.772 483.097,388.938 482.5,390C 473.149,390.168 463.816,390.668 454.5,391.5C 455.665,392.584 456.998,393.417 458.5,394C 466.833,394.667 475.167,394.667 483.5,394C 485.384,392.951 486.718,391.451 487.5,389.5C 504.265,388.847 520.931,388.18 537.5,387.5C 557.286,386.387 566.952,376.054 566.5,356.5C 567.167,355.833 567.833,355.167 568.5,354.5C 571.142,375.04 562.142,386.873 541.5,390C 525.156,390.167 508.823,390.667 492.5,391.5C 492.709,392.086 493.043,392.586 493.5,393C 510.163,393.5 526.83,393.667 543.5,393.5C 522.659,394.287 501.659,395.12 480.5,396C 473.104,397.182 465.771,398.682 458.5,400.5C 452.107,398.128 445.44,396.628 438.5,396C 437.91,392.575 435.91,390.742 432.5,390.5C 427.269,392.615 421.935,394.448 416.5,396C 410.909,396.841 405.576,396.341 400.5,394.5C 405.844,394.666 411.177,394.499 416.5,394C 418.587,393.208 420.421,392.041 422,390.5C 422.798,387.457 423.965,384.624 425.5,382C 430.833,381.667 436.167,381.333 441.5,381C 442.337,379.989 442.67,378.822 442.5,377.5C 436.158,377.334 429.825,377.5 423.5,378C 421.811,380.557 420.644,383.391 420,386.5C 418.833,387.667 417.667,388.833 416.5,390C 408.833,390.333 401.167,390.667 393.5,391C 392.748,391.671 392.414,392.504 392.5,393.5C 390.5,393.5 388.5,393.5 386.5,393.5C 388.69,392.626 389.69,390.959 389.5,388.5C 396.841,388.666 404.174,388.5 411.5,388C 413.587,387.208 415.421,386.041 417,384.5C 417.789,381.166 418.956,377.999 420.5,375C 428.5,374.333 436.5,374.333 444.5,375C 445.834,377.66 446.668,380.494 447,383.5C 448.167,384.667 449.333,385.833 450.5,387C 460.411,387.818 470.244,387.651 480,386.5C 471.931,359.126 462.764,332.126 452.5,305.5C 451.637,302.077 450.47,298.744 449,295.5C 448.25,294.874 447.416,294.374 446.5,294C 437.84,293.5 429.173,293.334 420.5,293.5C 429.568,292.821 438.735,292.155 448,291.5C 452.012,293.014 454.845,295.681 456.5,299.5 Z"/></g>
<g><path style="opacity:1" fill="#6b91da" d="M 555.5,301.5 C 554.508,301.328 553.842,301.662 553.5,302.5C 552.25,302.577 551.417,303.244 551,304.5C 548.39,304.347 546.057,303.014 544,300.5C 544.474,303.156 545.307,305.823 546.5,308.5C 546.833,308.833 547.167,309.167 547.5,309.5C 548.62,308.167 549.953,307.667 551.5,308C 549.963,309.11 549.297,310.61 549.5,312.5C 548.127,312.657 546.793,312.49 545.5,312C 543.821,309.799 541.821,307.966 539.5,306.5C 538.855,305.268 538.689,303.935 539,302.5C 537.488,301.743 536.154,300.743 535,299.5C 533.373,300.532 532.207,301.866 531.5,303.5C 530.691,302.531 529.691,301.698 528.5,301C 528.957,300.586 529.291,300.086 529.5,299.5C 525.419,296.764 521.752,297.097 518.5,300.5C 516.87,299.102 515.036,298.102 513,297.5C 512.646,299.807 511.646,300.141 510,298.5C 509.333,299.167 508.667,299.833 508,300.5C 505.08,296.842 501.747,296.175 498,298.5C 495.768,297.813 493.602,297.479 491.5,297.5C 490.483,300.028 489.316,300.028 488,297.5C 487.8,299.32 486.966,300.653 485.5,301.5C 485.042,298.606 485.709,296.106 487.5,294C 504.833,293.333 522.167,293.333 539.5,294C 543.276,294.592 546.943,295.592 550.5,297C 552.66,297.996 554.327,299.496 555.5,301.5 Z"/></g>
<g><path style="opacity:1" fill="#7094db" d="M 636.5,294.5 C 643.635,298.678 648.968,304.678 652.5,312.5C 651.812,313.855 650.812,314.855 649.5,315.5C 649.33,314.178 649.663,313.011 650.5,312C 648.695,311.028 647.028,309.861 645.5,308.5C 644.692,308.808 644.025,309.308 643.5,310C 644.451,310.718 644.617,311.551 644,312.5C 642.961,311.756 642.461,310.756 642.5,309.5C 643.957,305.792 642.791,304.459 639,305.5C 638.502,301.175 636.336,299.841 632.5,301.5C 631.947,297.544 631.114,297.544 630,301.5C 629.751,300.376 629.251,299.376 628.5,298.5C 628.446,299.687 628.113,301.02 627.5,302.5C 624.863,299.816 624.197,300.15 625.5,303.5C 624.069,303.881 623.236,304.881 623,306.5C 622.25,305.874 621.416,305.374 620.5,305C 622.816,301.978 622.816,298.812 620.5,295.5C 619.808,297.335 620.142,299.168 621.5,301C 620.646,302.022 619.646,302.855 618.5,303.5C 617.02,302.011 616.187,300.345 616,298.5C 615.692,299.308 615.192,299.975 614.5,300.5C 613.193,299.184 611.693,298.184 610,297.5C 611.156,299.093 612.322,300.927 613.5,303C 612.027,305.009 610.36,307.509 608.5,310.5C 607.4,307.984 605.733,306.984 603.5,307.5C 607.223,309.155 607.223,310.489 603.5,311.5C 602.833,310.5 602.167,309.5 601.5,308.5C 600.808,309.025 600.308,309.692 600,310.5C 598.983,307.972 597.816,307.972 596.5,310.5C 594.833,309.833 593.167,309.167 591.5,308.5C 590.253,306.994 590.253,305.494 591.5,304C 590.5,303.833 589.5,303.667 588.5,303.5C 585.854,304.214 583.354,304.214 581,303.5C 578.931,305.085 576.764,306.419 574.5,307.5C 579.446,299.726 586.446,294.892 595.5,293C 609.306,290.738 622.973,291.238 636.5,294.5 Z"/></g>
<g><path style="opacity:1" fill="#6e92da" d="M 153.5,293.5 C 162.173,293.334 170.84,293.5 179.5,294C 179.957,294.414 180.291,294.914 180.5,295.5C 179.95,297.657 179.283,299.657 178.5,301.5C 176.795,300.465 175.128,300.465 173.5,301.5C 170.836,299.666 168.336,297.666 166,295.5C 164.629,296.581 163.129,297.415 161.5,298C 162.167,298.333 162.833,298.667 163.5,299C 162.332,300.871 162.832,302.371 165,303.5C 165.333,303.167 165.667,302.833 166,302.5C 165.852,303.825 166.018,304.992 166.5,306C 164.874,305.32 163.207,304.32 161.5,303C 159.866,302.506 158.199,302.34 156.5,302.5C 156.649,303.552 156.483,304.552 156,305.5C 154.307,306.184 152.807,307.184 151.5,308.5C 150.534,306.604 150.201,304.604 150.5,302.5C 153.797,302.671 154.131,302.005 151.5,300.5C 152.698,300.06 153.865,299.727 155,299.5C 155.49,298.207 155.657,296.873 155.5,295.5C 150.54,294.609 148.04,296.942 148,302.5C 147.292,303.381 146.458,304.047 145.5,304.5C 145.045,298.365 147.712,294.699 153.5,293.5 Z"/></g>
<g><path style="opacity:1" fill="#6f93da" d="M 420.5,293.5 C 429.173,293.334 437.84,293.5 446.5,294C 447.416,294.374 448.25,294.874 449,295.5C 450.47,298.744 451.637,302.077 452.5,305.5C 449.012,305.906 445.679,306.906 442.5,308.5C 441.818,307.757 441.151,307.091 440.5,306.5C 440.631,305.624 440.298,304.957 439.5,304.5C 438.571,305.689 438.238,307.022 438.5,308.5C 437.883,308.389 437.383,308.056 437,307.5C 436.722,308.416 436.222,309.082 435.5,309.5C 433.708,309.366 432.042,309.699 430.5,310.5C 430.565,310.062 430.399,309.728 430,309.5C 428.43,310.614 427.097,311.947 426,313.5C 425.138,311.913 424.471,310.246 424,308.5C 423.667,309.167 423.333,309.833 423,310.5C 422.71,308.956 422.044,307.623 421,306.5C 419.667,307.833 418.333,307.833 417,306.5C 415.736,308.607 413.903,309.607 411.5,309.5C 413.327,304.888 415.16,300.221 417,295.5C 417.816,294.177 418.983,293.511 420.5,293.5 Z"/></g>
<g><path style="opacity:1" fill="#5f88d7" d="M 178.5,301.5 C 169.293,329.584 159.793,357.584 150,385.5C 149.5,386 149,386.5 148.5,387C 138.506,387.5 128.506,387.666 118.5,387.5C 117.504,387.586 116.671,387.252 116,386.5C 115.147,384.065 114.147,381.731 113,379.5C 107.489,361.798 101.655,344.132 95.5,326.5C 96.0222,323.606 95.3556,320.773 93.5,318C 94.3617,315.266 95.195,315.099 96,317.5C 97.0113,316.663 98.1779,316.33 99.5,316.5C 99.4208,315.07 99.7542,313.736 100.5,312.5C 99.624,311.749 98.624,311.249 97.5,311C 98.7375,310.768 99.7375,310.268 100.5,309.5C 101.496,309.414 102.329,309.748 103,310.5C 103.464,309.906 103.631,309.239 103.5,308.5C 103.833,308.5 104.167,308.5 104.5,308.5C 105.167,308.5 105.833,308.5 106.5,308.5C 107.671,309.345 109.005,310.011 110.5,310.5C 111.625,312.129 112.959,313.629 114.5,315C 113.551,315.617 112.718,315.451 112,314.5C 111.437,315.725 111.77,316.725 113,317.5C 114.425,316.788 115.925,316.621 117.5,317C 115.403,315 114.403,312.834 114.5,310.5C 115.622,311.63 116.956,312.297 118.5,312.5C 119.322,310.611 120.155,308.611 121,306.5C 121.383,307.056 121.883,307.389 122.5,307.5C 125.555,320.267 129.055,332.933 133,345.5C 138.226,332.114 142.392,318.447 145.5,304.5C 146.458,304.047 147.292,303.381 148,302.5C 148.04,296.942 150.54,294.609 155.5,295.5C 155.657,296.873 155.49,298.207 155,299.5C 153.865,299.727 152.698,300.06 151.5,300.5C 154.131,302.005 153.797,302.671 150.5,302.5C 150.201,304.604 150.534,306.604 151.5,308.5C 152.807,307.184 154.307,306.184 156,305.5C 156.483,304.552 156.649,303.552 156.5,302.5C 158.199,302.34 159.866,302.506 161.5,303C 163.207,304.32 164.874,305.32 166.5,306C 166.018,304.992 165.852,303.825 166,302.5C 165.667,302.833 165.333,303.167 165,303.5C 162.832,302.371 162.332,300.871 163.5,299C 162.833,298.667 162.167,298.333 161.5,298C 163.129,297.415 164.629,296.581 166,295.5C 168.336,297.666 170.836,299.666 173.5,301.5C 175.128,300.465 176.795,300.465 178.5,301.5 Z"/></g>
<g><path style="opacity:1" fill="#edf0f6" d="M 254.5,294.5 C 256.882,296.215 258.882,298.215 260.5,300.5C 258.702,306.421 257.869,312.754 258,319.5C 257.626,320.416 257.126,321.25 256.5,322C 244.171,322.5 231.838,322.667 219.5,322.5C 219.5,323.5 219.5,324.5 219.5,325.5C 231.5,325.5 243.5,325.5 255.5,325.5C 253.394,327.719 252.394,330.385 252.5,333.5C 250.7,339.758 249.867,346.425 250,353.5C 249.167,354.333 248.333,355.167 247.5,356C 238.149,356.168 228.816,356.668 219.5,357.5C 229.817,358.666 240.151,358.832 250.5,358C 251.373,356.955 252.373,356.122 253.5,355.5C 255.804,360.887 258.971,361.554 263,357.5C 263.173,351.652 263.673,345.985 264.5,340.5C 264.334,347.841 264.5,355.174 265,362.5C 265.5,363 266,363.5 266.5,364C 278.833,364.667 291.167,364.667 303.5,364C 304.766,363.691 305.933,363.191 307,362.5C 307.5,355.508 307.666,348.508 307.5,341.5C 310.625,343.172 313.458,342.838 316,340.5C 316.5,335.988 316.333,331.488 315.5,327C 315.489,323.884 316.155,321.051 317.5,318.5C 317.333,340.503 317.5,362.503 318,384.5C 318.465,385.931 319.299,387.097 320.5,388C 340.833,388.667 361.167,388.667 381.5,388C 382.333,387.167 383.167,386.333 384,385.5C 384.5,378.508 384.666,371.508 384.5,364.5C 388.195,366.243 390.861,365.243 392.5,361.5C 392.162,363.854 391.662,366.187 391,368.5C 390.259,369.641 389.425,369.641 388.5,368.5C 387.827,373.592 386.827,378.592 385.5,383.5C 386.905,386.04 386.572,388.207 384.5,390C 364.492,390.167 344.492,390.667 324.5,391.5C 325.09,392.799 326.09,393.632 327.5,394C 336.494,394.5 345.494,394.666 354.5,394.5C 346.343,395.329 338.01,395.829 329.5,396C 325.879,397.138 322.212,397.972 318.5,398.5C 318.599,386.108 312.933,377.608 301.5,373C 296.044,372.055 290.711,371.222 285.5,370.5C 293.507,370.666 301.507,370.5 309.5,370C 310.624,369.751 311.624,369.251 312.5,368.5C 313.632,361.217 313.799,353.883 313,346.5C 312.586,346.043 312.086,345.709 311.5,345.5C 310.669,351.807 310.169,358.141 310,364.5C 309.167,365.333 308.333,366.167 307.5,367C 295.153,367.167 282.82,367.667 270.5,368.5C 273.193,370.27 276.193,370.937 279.5,370.5C 274.978,372.832 270.811,375.832 267,379.5C 266.643,386.205 264.143,391.872 259.5,396.5C 239.129,398.87 218.796,398.87 198.5,396.5C 196.298,397.78 194.132,397.78 192,396.5C 191.001,393.168 189.501,390.168 187.5,387.5C 209.836,387.667 232.169,387.5 254.5,387C 255,386.5 255.5,386 256,385.5C 256.667,378.167 256.667,370.833 256,363.5C 255.184,362.177 254.017,361.511 252.5,361.5C 240.598,360.814 228.598,360.148 216.5,359.5C 216.5,357.5 216.5,355.5 216.5,353.5C 225.839,353.666 235.173,353.5 244.5,353C 245.416,352.626 246.25,352.126 247,351.5C 247.667,343.833 247.667,336.167 247,328.5C 246.5,328 246,327.5 245.5,327C 235.839,326.5 226.172,326.334 216.5,326.5C 216.5,324.167 216.5,321.833 216.5,319.5C 228.838,319.667 241.171,319.5 253.5,319C 254.126,318.25 254.626,317.416 255,316.5C 255.499,312.848 255.665,309.182 255.5,305.5C 255.677,301.766 255.344,298.099 254.5,294.5 Z"/></g>
<g><path style="opacity:1" fill="#7395db" d="M 122.5,307.5 C 121.883,307.389 121.383,307.056 121,306.5C 120.155,308.611 119.322,310.611 118.5,312.5C 118.586,311.504 118.252,310.671 117.5,310C 114.566,307.02 112.232,307.187 110.5,310.5C 109.005,310.011 107.671,309.345 106.5,308.5C 108.418,306.299 109.751,303.632 110.5,300.5C 109.566,299.432 109.232,298.099 109.5,296.5C 106.606,296.042 104.106,296.709 102,298.5C 100.517,296.054 99.3505,296.388 98.5,299.5C 98.7093,300.086 99.0426,300.586 99.5,301C 97.5,301.333 95.5,301.667 93.5,302C 92.1787,303.545 92.5121,304.711 94.5,305.5C 95.9684,303.667 97.6351,303.334 99.5,304.5C 98.3717,305.262 97.2051,305.929 96,306.5C 95.4372,307.725 95.7705,308.725 97,309.5C 99.3411,307.671 101.841,306.004 104.5,304.5C 103.271,303.719 101.938,303.219 100.5,303C 102.848,302.89 104.348,301.723 105,299.5C 105.465,300.931 106.299,302.097 107.5,303C 105.431,303.324 105.098,304.158 106.5,305.5C 105.388,306.265 104.721,307.265 104.5,308.5C 104.167,308.5 103.833,308.5 103.5,308.5C 103.631,307.761 103.464,307.094 103,306.5C 101.829,307.893 100.329,308.727 98.5,309C 99.0944,309.464 99.7611,309.631 100.5,309.5C 99.7375,310.268 98.7375,310.768 97.5,311C 98.624,311.249 99.624,311.749 100.5,312.5C 99.7542,313.736 99.4208,315.07 99.5,316.5C 98.1779,316.33 97.0113,316.663 96,317.5C 95.195,315.099 94.3617,315.266 93.5,318C 95.3556,320.773 96.0222,323.606 95.5,326.5C 91.6008,316.802 88.2675,306.802 85.5,296.5C 85.6082,295.558 85.9415,294.725 86.5,294C 96.4471,292.116 106.447,292.116 116.5,294C 118,294.833 119.167,296 120,297.5C 120.838,300.852 121.671,304.185 122.5,307.5 Z"/></g>
<g><path style="opacity:1" fill="#ebeef5" d="M 110.5,300.5 C 109.751,303.632 108.418,306.299 106.5,308.5C 105.833,308.5 105.167,308.5 104.5,308.5C 104.721,307.265 105.388,306.265 106.5,305.5C 105.098,304.158 105.431,303.324 107.5,303C 106.299,302.097 105.465,300.931 105,299.5C 104.348,301.723 102.848,302.89 100.5,303C 101.938,303.219 103.271,303.719 104.5,304.5C 101.841,306.004 99.3411,307.671 97,309.5C 95.7705,308.725 95.4372,307.725 96,306.5C 97.2051,305.929 98.3717,305.262 99.5,304.5C 97.6351,303.334 95.9684,303.667 94.5,305.5C 92.5121,304.711 92.1787,303.545 93.5,302C 95.5,301.667 97.5,301.333 99.5,301C 99.0426,300.586 98.7093,300.086 98.5,299.5C 99.3505,296.388 100.517,296.054 102,298.5C 104.106,296.709 106.606,296.042 109.5,296.5C 109.232,298.099 109.566,299.432 110.5,300.5 Z"/></g>
<g><path style="opacity:1" fill="#dee5f3" d="M 110.5,300.5 C 110.612,295.407 111.445,295.407 113,300.5C 113.308,299.692 113.808,299.025 114.5,298.5C 115.956,300.878 115.623,302.878 113.5,304.5C 112.85,302.816 111.85,301.483 110.5,300.5 Z"/></g>
<g><path style="opacity:1" fill="#c1cfec" d="M 436.5,297.5 C 438.23,300.108 440.063,300.108 442,297.5C 442.167,297.833 442.333,298.167 442.5,298.5C 441.061,300.553 439.061,301.553 436.5,301.5C 436.5,300.167 436.5,298.833 436.5,297.5 Z"/></g>
<g><path style="opacity:1" fill="#dbe2f2" d="M 625.5,303.5 C 625.369,308.659 623.369,309.659 619.5,306.5C 618.558,306.608 617.725,306.941 617,307.5C 616.667,306.167 616.333,304.833 616,303.5C 615.355,304.646 614.522,305.646 613.5,306.5C 614.645,307.891 614.645,309.224 613.5,310.5C 611.995,307.869 611.329,308.203 611.5,311.5C 610.209,311.737 609.209,311.404 608.5,310.5C 610.36,307.509 612.027,305.009 613.5,303C 612.322,300.927 611.156,299.093 610,297.5C 611.693,298.184 613.193,299.184 614.5,300.5C 615.192,299.975 615.692,299.308 616,298.5C 616.187,300.345 617.02,302.011 618.5,303.5C 619.646,302.855 620.646,302.022 621.5,301C 620.142,299.168 619.808,297.335 620.5,295.5C 622.816,298.812 622.816,301.978 620.5,305C 621.416,305.374 622.25,305.874 623,306.5C 623.236,304.881 624.069,303.881 625.5,303.5 Z"/></g>
<g><path style="opacity:1" fill="#7194db" d="M 347.5,294.5 C 342.61,295.119 337.61,295.285 332.5,295C 332.167,295.333 331.833,295.667 331.5,296C 333.256,296.202 334.922,296.702 336.5,297.5C 336.137,298.183 335.804,298.85 335.5,299.5C 334.849,298.909 334.182,298.243 333.5,297.5C 331.509,298.427 329.509,298.594 327.5,298C 328.167,298.667 328.833,299.333 329.5,300C 327.745,300.72 326.911,301.887 327,303.5C 328.734,302.751 330.567,302.251 332.5,302C 331.346,301.086 331.513,300.253 333,299.5C 333.495,301.473 333.662,303.473 333.5,305.5C 334.833,305.5 336.167,305.5 337.5,305.5C 337.5,306.5 337.5,307.5 337.5,308.5C 337.565,308.938 337.399,309.272 337,309.5C 335.929,306.887 335.095,306.887 334.5,309.5C 333.833,309.5 333.167,309.5 332.5,309.5C 331.038,308.529 329.705,308.862 328.5,310.5C 327.833,310.5 327.5,310.833 327.5,311.5C 326.833,310.5 326.167,309.5 325.5,308.5C 324.048,307.698 322.382,307.198 320.5,307C 319.809,305.933 319.309,304.766 319,303.5C 318.824,307.688 318.324,311.688 317.5,315.5C 317.5,308.833 317.5,302.167 317.5,295.5C 318.289,295.217 318.956,294.717 319.5,294C 329.009,293.176 338.343,293.342 347.5,294.5 Z"/></g>
<g><path style="opacity:1" fill="#e5eaf4" d="M 632.5,301.5 C 627.244,303.547 627.244,305.38 632.5,307C 631.062,307.219 629.729,307.719 628.5,308.5C 629.629,310.529 629.129,310.863 627,309.5C 626.667,310.167 626.333,310.833 626,311.5C 625.471,309.415 625.971,307.582 627.5,306C 627.361,304.699 626.695,303.866 625.5,303.5C 624.197,300.15 624.863,299.816 627.5,302.5C 628.113,301.02 628.446,299.687 628.5,298.5C 629.251,299.376 629.751,300.376 630,301.5C 631.114,297.544 631.947,297.544 632.5,301.5 Z"/></g>
<g><path style="opacity:1" fill="#e2e7f3" d="M 433.5,297.5 C 434.621,299.089 434.454,300.756 433,302.5C 430.976,304.358 428.809,306.025 426.5,307.5C 426.277,306.033 425.944,304.533 425.5,303C 426.881,296.98 427.547,297.147 427.5,303.5C 431.129,303.205 433.129,301.205 433.5,297.5 Z"/></g>
<g><path style="opacity:1" fill="#6088d7" d="M 255.5,305.5 C 255.665,309.182 255.499,312.848 255,316.5C 254.626,317.416 254.126,318.25 253.5,319C 241.171,319.5 228.838,319.667 216.5,319.5C 216.5,321.833 216.5,324.167 216.5,326.5C 226.172,326.334 235.839,326.5 245.5,327C 246,327.5 246.5,328 247,328.5C 247.667,336.167 247.667,343.833 247,351.5C 246.25,352.126 245.416,352.626 244.5,353C 235.173,353.5 225.839,353.666 216.5,353.5C 216.5,355.5 216.5,357.5 216.5,359.5C 228.12,361.479 240.12,362.146 252.5,361.5C 254.017,361.511 255.184,362.177 256,363.5C 256.667,370.833 256.667,378.167 256,385.5C 255.5,386 255,386.5 254.5,387C 232.169,387.5 209.836,387.667 187.5,387.5C 186.778,387.082 186.278,386.416 186,385.5C 185.501,381.179 185.334,376.846 185.5,372.5C 185.5,349.833 185.5,327.167 185.5,304.5C 186.688,303.316 187.855,303.316 189,304.5C 189.483,303.552 189.649,302.552 189.5,301.5C 193.257,301.727 196.757,302.06 200,302.5C 201.674,300.991 203.34,300.324 205,300.5C 208.485,302.336 212.152,302.336 216,300.5C 219.102,300.783 222.102,300.783 225,300.5C 225.249,301.624 225.749,302.624 226.5,303.5C 226.911,302.738 227.077,301.738 227,300.5C 228.68,301.603 230.18,301.27 231.5,299.5C 235.003,300.235 238.669,300.235 242.5,299.5C 243.748,300.04 244.915,300.707 246,301.5C 248.621,300.009 251.455,299.342 254.5,299.5C 254.205,301.735 254.539,303.735 255.5,305.5 Z"/></g>
<g><path style="opacity:1" fill="#eaedf5" d="M 440.5,306.5 C 439.833,307.167 439.167,307.833 438.5,308.5C 438.238,307.022 438.571,305.689 439.5,304.5C 440.298,304.957 440.631,305.624 440.5,306.5 Z"/></g>
<g><path style="opacity:1" fill="#6289d7" d="M 531.5,303.5 C 532.309,304.469 533.309,305.302 534.5,306C 533.167,306.333 531.833,306.667 530.5,307C 530.833,307.333 531.167,307.667 531.5,308C 533.811,307.845 536.144,307.845 538.5,308C 539.833,308.667 539.833,309.333 538.5,310C 539.833,310.667 541.167,311.333 542.5,312C 540.871,312.585 539.371,313.419 538,314.5C 536.739,314.241 535.739,313.574 535,312.5C 535.667,315.167 535.667,317.833 535,320.5C 537.313,322.037 539.813,322.537 542.5,322C 540.974,320.113 538.974,319.113 536.5,319C 537.313,317.115 538.647,316.449 540.5,317C 541.333,318.5 542.5,319.667 544,320.5C 544.651,322.235 544.485,323.902 543.5,325.5C 544.243,326.182 544.909,326.849 545.5,327.5C 548.113,326.905 548.113,326.071 545.5,325C 546.328,324.085 547.328,323.419 548.5,323C 545.983,320.651 543.65,318.151 541.5,315.5C 541.833,315.167 542.167,314.833 542.5,314.5C 543.885,318.378 545.051,318.378 546,314.5C 546.333,314.833 546.667,315.167 547,315.5C 549.398,314.081 551.898,312.747 554.5,311.5C 555.451,312.326 556.451,312.492 557.5,312C 556.255,308.754 554.921,305.587 553.5,302.5C 553.842,301.662 554.508,301.328 555.5,301.5C 557.451,302.716 558.951,304.382 560,306.5C 564.474,317.271 562.974,326.938 555.5,335.5C 554.571,336.315 553.571,337.148 552.5,338C 560.469,341.814 565.136,347.98 566.5,356.5C 566.952,376.054 557.286,386.387 537.5,387.5C 520.466,386.848 503.8,387.515 487.5,389.5C 486.718,391.451 485.384,392.951 483.5,394C 475.167,394.667 466.833,394.667 458.5,394C 456.998,393.417 455.665,392.584 454.5,391.5C 463.816,390.668 473.149,390.168 482.5,390C 483.097,388.938 483.43,387.772 483.5,386.5C 474.592,358.672 465.092,331.005 455,303.5C 454.156,301.537 454.656,300.204 456.5,299.5C 463.755,317.264 470.422,335.264 476.5,353.5C 479.027,361.243 481.86,368.909 485,376.5C 485.5,351.502 485.667,326.502 485.5,301.5C 486.966,300.653 487.8,299.32 488,297.5C 489.316,300.028 490.483,300.028 491.5,297.5C 493.602,297.479 495.768,297.813 498,298.5C 501.747,296.175 505.08,296.842 508,300.5C 508.667,299.833 509.333,299.167 510,298.5C 511.646,300.141 512.646,299.807 513,297.5C 515.036,298.102 516.87,299.102 518.5,300.5C 521.752,297.097 525.419,296.764 529.5,299.5C 529.291,300.086 528.957,300.586 528.5,301C 529.691,301.698 530.691,302.531 531.5,303.5 Z"/></g>
<g><path style="opacity:1" fill="#dee5f2" d="M 335.5,299.5 C 336.992,299.287 338.658,299.287 340.5,299.5C 339.5,300.333 338.5,301.167 337.5,302C 338.397,304.087 339.064,306.254 339.5,308.5C 338.833,308.5 338.167,308.5 337.5,308.5C 337.5,307.5 337.5,306.5 337.5,305.5C 336.167,305.5 334.833,305.5 333.5,305.5C 333.662,303.473 333.495,301.473 333,299.5C 331.513,300.253 331.346,301.086 332.5,302C 330.567,302.251 328.734,302.751 327,303.5C 326.911,301.887 327.745,300.72 329.5,300C 328.833,299.333 328.167,298.667 327.5,298C 329.509,298.594 331.509,298.427 333.5,297.5C 334.182,298.243 334.849,298.909 335.5,299.5 Z"/></g>
<g><path style="opacity:1" fill="#6189d7" d="M 452.5,305.5 C 462.764,332.126 471.931,359.126 480,386.5C 470.244,387.651 460.411,387.818 450.5,387C 449.333,385.833 448.167,384.667 447,383.5C 446.668,380.494 445.834,377.66 444.5,375C 436.5,374.333 428.5,374.333 420.5,375C 418.956,377.999 417.789,381.166 417,384.5C 415.421,386.041 413.587,387.208 411.5,388C 404.174,388.5 396.841,388.666 389.5,388.5C 389.69,390.959 388.69,392.626 386.5,393.5C 375.885,394.454 365.218,394.787 354.5,394.5C 345.494,394.666 336.494,394.5 327.5,394C 326.09,393.632 325.09,392.799 324.5,391.5C 344.492,390.667 364.492,390.167 384.5,390C 386.572,388.207 386.905,386.04 385.5,383.5C 386.827,378.592 387.827,373.592 388.5,368.5C 389.425,369.641 390.259,369.641 391,368.5C 391.662,366.187 392.162,363.854 392.5,361.5C 399.618,344.481 405.952,327.148 411.5,309.5C 413.903,309.607 415.736,308.607 417,306.5C 418.333,307.833 419.667,307.833 421,306.5C 422.044,307.623 422.71,308.956 423,310.5C 423.333,309.833 423.667,309.167 424,308.5C 424.471,310.246 425.138,311.913 426,313.5C 427.097,311.947 428.43,310.614 430,309.5C 430.399,309.728 430.565,310.062 430.5,310.5C 428.442,315.417 430.109,319.084 435.5,321.5C 436.521,320.998 436.688,320.332 436,319.5C 434.04,317.964 432.54,316.131 431.5,314C 431.667,313.167 431.833,312.333 432,311.5C 433.302,310.915 434.469,310.249 435.5,309.5C 436.222,309.082 436.722,308.416 437,307.5C 437.383,308.056 437.883,308.389 438.5,308.5C 439.167,307.833 439.833,307.167 440.5,306.5C 441.151,307.091 441.818,307.757 442.5,308.5C 445.679,306.906 449.012,305.906 452.5,305.5 Z"/></g>
<g><path style="opacity:1" fill="#c6d3ed" d="M 521.5,302.5 C 523.296,303.794 525.296,304.794 527.5,305.5C 525.674,305.92 523.674,305.92 521.5,305.5C 521.5,304.5 521.5,303.5 521.5,302.5 Z"/></g>
<g><path style="opacity:1" fill="#6189d7" d="M 632.5,301.5 C 636.131,303.775 638.465,307.108 639.5,311.5C 640.518,310.807 641.518,310.141 642.5,309.5C 642.461,310.756 642.961,311.756 644,312.5C 644.617,311.551 644.451,310.718 643.5,310C 644.025,309.308 644.692,308.808 645.5,308.5C 647.028,309.861 648.695,311.028 650.5,312C 649.663,313.011 649.33,314.178 649.5,315.5C 642.721,318.64 635.888,321.64 629,324.5C 625.575,323.409 623.075,321.242 621.5,318C 615.949,315.263 610.282,314.93 604.5,317C 601.538,320.488 602.205,323.155 606.5,325C 619.48,326.104 631.814,329.437 643.5,335C 655.124,346.575 657.29,359.742 650,374.5C 644.524,380.961 637.691,385.461 629.5,388C 619.536,389.423 609.536,389.756 599.5,389C 587.277,388.222 577.943,382.722 571.5,372.5C 569.756,376.322 567.756,379.989 565.5,383.5C 558.909,388.462 551.576,391.795 543.5,393.5C 526.83,393.667 510.163,393.5 493.5,393C 493.043,392.586 492.709,392.086 492.5,391.5C 508.823,390.667 525.156,390.167 541.5,390C 562.142,386.873 571.142,375.04 568.5,354.5C 568.81,353.262 569.31,353.262 570,354.5C 571.149,357.393 571.649,360.393 571.5,363.5C 578.077,360.918 584.744,358.584 591.5,356.5C 593.199,356.34 594.866,356.506 596.5,357C 599.707,362.833 604.707,365.333 611.5,364.5C 614.567,364.393 617.567,363.893 620.5,363C 621.591,360.936 621.758,358.769 621,356.5C 612.622,354.282 604.122,352.448 595.5,351C 591.603,349.981 587.936,348.481 584.5,346.5C 575.459,340.763 570.792,332.43 570.5,321.5C 570.907,316.534 572.24,311.867 574.5,307.5C 576.764,306.419 578.931,305.085 581,303.5C 583.354,304.214 585.854,304.214 588.5,303.5C 589.5,303.667 590.5,303.833 591.5,304C 590.253,305.494 590.253,306.994 591.5,308.5C 593.167,309.167 594.833,309.833 596.5,310.5C 597.816,307.972 598.983,307.972 600,310.5C 600.308,309.692 600.808,309.025 601.5,308.5C 602.167,309.5 602.833,310.5 603.5,311.5C 607.223,310.489 607.223,309.155 603.5,307.5C 605.733,306.984 607.4,307.984 608.5,310.5C 609.209,311.404 610.209,311.737 611.5,311.5C 611.329,308.203 611.995,307.869 613.5,310.5C 614.645,309.224 614.645,307.891 613.5,306.5C 614.522,305.646 615.355,304.646 616,303.5C 616.333,304.833 616.667,306.167 617,307.5C 617.725,306.941 618.558,306.608 619.5,306.5C 623.369,309.659 625.369,308.659 625.5,303.5C 626.695,303.866 627.361,304.699 627.5,306C 625.971,307.582 625.471,309.415 626,311.5C 626.333,310.833 626.667,310.167 627,309.5C 629.129,310.863 629.629,310.529 628.5,308.5C 629.729,307.719 631.062,307.219 632.5,307C 627.244,305.38 627.244,303.547 632.5,301.5 Z"/></g>
<g><path style="opacity:1" fill="#c2cfec" d="M 642.5,309.5 C 641.518,310.141 640.518,310.807 639.5,311.5C 638.465,307.108 636.131,303.775 632.5,301.5C 636.336,299.841 638.502,301.175 639,305.5C 642.791,304.459 643.957,305.792 642.5,309.5 Z"/></g>
<g><path style="opacity:1" fill="#eef0f6" d="M 185.5,304.5 C 185.5,327.167 185.5,349.833 185.5,372.5C 184.67,362.008 184.17,351.341 184,340.5C 182.455,335.588 179.288,334.255 174.5,336.5C 177.407,325.443 181.073,314.776 185.5,304.5 Z"/></g>
<g><path style="opacity:1" fill="#5f87d7" d="M 347.5,294.5 C 348.332,315.996 348.832,337.663 349,359.5C 349.5,360 350,360.5 350.5,361C 360.828,361.5 371.161,361.666 381.5,361.5C 382.833,362.167 383.833,363.167 384.5,364.5C 384.666,371.508 384.5,378.508 384,385.5C 383.167,386.333 382.333,387.167 381.5,388C 361.167,388.667 340.833,388.667 320.5,388C 319.299,387.097 318.465,385.931 318,384.5C 317.5,362.503 317.333,340.503 317.5,318.5C 317.5,317.5 317.5,316.5 317.5,315.5C 318.324,311.688 318.824,307.688 319,303.5C 319.309,304.766 319.809,305.933 320.5,307C 322.382,307.198 324.048,307.698 325.5,308.5C 325.739,310.467 325.406,312.301 324.5,314C 326.489,314.519 327.489,313.686 327.5,311.5C 327.5,310.833 327.833,310.5 328.5,310.5C 329.959,310.567 331.292,310.234 332.5,309.5C 333.167,309.5 333.833,309.5 334.5,309.5C 333.026,311.961 333.193,314.294 335,316.5C 335.494,314.866 335.66,313.199 335.5,311.5C 336.873,311.343 338.207,311.51 339.5,312C 337.122,312.974 337.456,313.641 340.5,314C 339.289,314.893 339.289,315.726 340.5,316.5C 341.898,313.565 341.565,310.898 339.5,308.5C 339.064,306.254 338.397,304.087 337.5,302C 338.5,301.167 339.5,300.333 340.5,299.5C 338.658,299.287 336.992,299.287 335.5,299.5C 335.804,298.85 336.137,298.183 336.5,297.5C 334.922,296.702 333.256,296.202 331.5,296C 331.833,295.667 332.167,295.333 332.5,295C 337.61,295.285 342.61,295.119 347.5,294.5 Z"/></g>
<g><path style="opacity:1" fill="#6b90d9" d="M 252.5,293.5 C 253.492,293.328 254.158,293.662 254.5,294.5C 255.344,298.099 255.677,301.766 255.5,305.5C 254.539,303.735 254.205,301.735 254.5,299.5C 251.455,299.342 248.621,300.009 246,301.5C 244.915,300.707 243.748,300.04 242.5,299.5C 238.669,300.235 235.003,300.235 231.5,299.5C 230.18,301.27 228.68,301.603 227,300.5C 227.077,301.738 226.911,302.738 226.5,303.5C 225.749,302.624 225.249,301.624 225,300.5C 222.102,300.783 219.102,300.783 216,300.5C 212.152,302.336 208.485,302.336 205,300.5C 203.34,300.324 201.674,300.991 200,302.5C 196.757,302.06 193.257,301.727 189.5,301.5C 189.649,302.552 189.483,303.552 189,304.5C 187.855,303.316 186.688,303.316 185.5,304.5C 181.073,314.776 177.407,325.443 174.5,336.5C 169.477,348.88 165.311,361.547 162,374.5C 159.21,380.41 156.71,386.41 154.5,392.5C 153.624,393.251 152.624,393.751 151.5,394C 142.833,394.667 134.167,394.667 125.5,394C 124.263,393.768 123.263,393.268 122.5,392.5C 131.446,390.689 140.78,389.855 150.5,390C 151.308,389.692 151.975,389.192 152.5,388.5C 163.019,359.776 172.853,330.776 182,301.5C 184.445,299.442 186.278,296.942 187.5,294C 209.164,293.5 230.831,293.333 252.5,293.5 Z"/></g>
<g><path style="opacity:1" fill="#e9edf5" d="M 103.5,308.5 C 103.631,309.239 103.464,309.906 103,310.5C 102.329,309.748 101.496,309.414 100.5,309.5C 99.7611,309.631 99.0944,309.464 98.5,309C 100.329,308.727 101.829,307.893 103,306.5C 103.464,307.094 103.631,307.761 103.5,308.5 Z"/></g>
<g><path style="opacity:1" fill="#6a8fd9" d="M 123.5,300.5 C 125.592,300.561 127.092,301.561 128,303.5C 130.805,313.19 132.971,323.023 134.5,333C 134.167,334.5 133.833,336 133.5,337.5C 129.68,325.452 126.347,313.118 123.5,300.5 Z"/></g>
<g><path style="opacity:1" fill="#e5eaf4" d="M 332.5,309.5 C 331.292,310.234 329.959,310.567 328.5,310.5C 329.705,308.862 331.038,308.529 332.5,309.5 Z"/></g>
<g><path style="opacity:1" fill="#aabce7" d="M 337.5,308.5 C 338.167,308.5 338.833,308.5 339.5,308.5C 341.565,310.898 341.898,313.565 340.5,316.5C 339.289,315.726 339.289,314.893 340.5,314C 337.456,313.641 337.122,312.974 339.5,312C 338.207,311.51 336.873,311.343 335.5,311.5C 335.66,313.199 335.494,314.866 335,316.5C 333.193,314.294 333.026,311.961 334.5,309.5C 335.095,306.887 335.929,306.887 337,309.5C 337.399,309.272 337.565,308.938 337.5,308.5 Z"/></g>
<g><path style="opacity:1" fill="#c7d4ed" d="M 152.5,309.5 C 153.586,309.62 154.253,310.287 154.5,311.5C 155.228,313.155 155.395,314.821 155,316.5C 153.589,314.35 152.755,312.016 152.5,309.5 Z"/></g>
<g><path style="opacity:1" fill="#dbe2f2" d="M 619.5,308.5 C 620.756,308.461 621.756,308.961 622.5,310C 620.671,310.273 619.171,311.107 618,312.5C 617.5,312 617,311.5 616.5,311C 617.571,310.148 618.571,309.315 619.5,308.5 Z"/></g>
<g><path style="opacity:1" fill="#dee5f2" d="M 632.5,309.5 C 634.975,309.747 634.975,310.413 632.5,311.5C 631.537,311.03 631.537,310.363 632.5,309.5 Z"/></g>
<g><path style="opacity:1" fill="#c2d0ec" d="M 325.5,308.5 C 326.167,309.5 326.833,310.5 327.5,311.5C 327.489,313.686 326.489,314.519 324.5,314C 325.406,312.301 325.739,310.467 325.5,308.5 Z"/></g>
<g><path style="opacity:1" fill="#e3e8f3" d="M 437.5,310.5 C 440.6,311.009 441.434,312.342 440,314.5C 437.865,313.873 435.698,313.373 433.5,313C 435.437,312.878 436.77,312.045 437.5,310.5 Z"/></g>
<g><path style="opacity:1" fill="#e0e6f3" d="M 553.5,302.5 C 554.921,305.587 556.255,308.754 557.5,312C 556.451,312.492 555.451,312.326 554.5,311.5C 551.898,312.747 549.398,314.081 547,315.5C 546.667,315.167 546.333,314.833 546,314.5C 545.051,318.378 543.885,318.378 542.5,314.5C 542.167,314.833 541.833,315.167 541.5,315.5C 543.65,318.151 545.983,320.651 548.5,323C 547.328,323.419 546.328,324.085 545.5,325C 548.113,326.071 548.113,326.905 545.5,327.5C 544.909,326.849 544.243,326.182 543.5,325.5C 544.485,323.902 544.651,322.235 544,320.5C 542.5,319.667 541.333,318.5 540.5,317C 538.647,316.449 537.313,317.115 536.5,319C 538.974,319.113 540.974,320.113 542.5,322C 539.813,322.537 537.313,322.037 535,320.5C 535.667,317.833 535.667,315.167 535,312.5C 535.739,313.574 536.739,314.241 538,314.5C 539.371,313.419 540.871,312.585 542.5,312C 541.167,311.333 539.833,310.667 538.5,310C 539.833,309.333 539.833,308.667 538.5,308C 536.144,307.845 533.811,307.845 531.5,308C 531.167,307.667 530.833,307.333 530.5,307C 531.833,306.667 533.167,306.333 534.5,306C 533.309,305.302 532.309,304.469 531.5,303.5C 532.207,301.866 533.373,300.532 535,299.5C 536.154,300.743 537.488,301.743 539,302.5C 538.689,303.935 538.855,305.268 539.5,306.5C 541.821,307.966 543.821,309.799 545.5,312C 546.793,312.49 548.127,312.657 549.5,312.5C 549.297,310.61 549.963,309.11 551.5,308C 549.953,307.667 548.62,308.167 547.5,309.5C 547.167,309.167 546.833,308.833 546.5,308.5C 545.307,305.823 544.474,303.156 544,300.5C 546.057,303.014 548.39,304.347 551,304.5C 551.417,303.244 552.25,302.577 553.5,302.5 Z"/></g>
<g><path style="opacity:1" fill="#688dd8" d="M 564.5,309.5 C 570.755,320.203 569.422,329.87 560.5,338.5C 559.478,338.145 558.811,337.478 558.5,336.5C 565.528,328.969 567.194,320.302 563.5,310.5C 563.624,309.893 563.957,309.56 564.5,309.5 Z"/></g>
<g><path style="opacity:1" fill="#dbe2f2" d="M 118.5,312.5 C 116.956,312.297 115.622,311.63 114.5,310.5C 114.403,312.834 115.403,315 117.5,317C 115.925,316.621 114.425,316.788 113,317.5C 111.77,316.725 111.437,315.725 112,314.5C 112.718,315.451 113.551,315.617 114.5,315C 112.959,313.629 111.625,312.129 110.5,310.5C 112.232,307.187 114.566,307.02 117.5,310C 118.252,310.671 118.586,311.504 118.5,312.5 Z"/></g>
<g><path style="opacity:1" fill="#dae2f1" d="M 593.5,313.5 C 595.852,314.543 596.019,315.876 594,317.5C 593.51,316.207 593.343,314.873 593.5,313.5 Z"/></g>
<g><path style="opacity:1" fill="#acbee7" d="M 435.5,309.5 C 434.469,310.249 433.302,310.915 432,311.5C 431.833,312.333 431.667,313.167 431.5,314C 432.54,316.131 434.04,317.964 436,319.5C 436.688,320.332 436.521,320.998 435.5,321.5C 430.109,319.084 428.442,315.417 430.5,310.5C 432.042,309.699 433.708,309.366 435.5,309.5 Z"/></g>
<g><path style="opacity:1" fill="#eff1f6" d="M 516.5,316.5 C 520.514,316.334 524.514,316.501 528.5,317C 530.72,320.101 531.053,323.435 529.5,327C 525.179,327.499 520.846,327.666 516.5,327.5C 516.5,323.833 516.5,320.167 516.5,316.5 Z"/></g>
<g><path style="opacity:1" fill="#e9edf5" d="M 448.5,312.5 C 449.634,314.966 449.801,317.633 449,320.5C 447.39,317.872 447.223,315.205 448.5,312.5 Z"/></g>
<g><path style="opacity:1" fill="#d8e1f1" d="M 115.5,318.5 C 116.713,319.497 116.546,320.497 115,321.5C 114.53,320.423 114.697,319.423 115.5,318.5 Z"/></g>
<g><path style="opacity:1" fill="#d3dcf0" d="M 330.5,314.5 C 332.176,315.183 332.843,316.517 332.5,318.5C 330.645,318.272 329.812,318.939 330,320.5C 331.916,322.209 334.082,323.543 336.5,324.5C 333.669,325.874 331.336,325.207 329.5,322.5C 329.013,321.554 328.68,320.554 328.5,319.5C 329.187,317.823 329.854,316.156 330.5,314.5 Z"/></g>
<g><path style="opacity:1" fill="#678dd8" d="M 520.5,319.5 C 523.482,319.104 526.149,319.771 528.5,321.5C 525.374,321.984 522.707,323.317 520.5,325.5C 517.839,323.514 517.839,321.514 520.5,319.5 Z"/></g>
<g><path style="opacity:1" fill="#d9e1f1" d="M 588.5,318.5 C 590.337,318.639 590.67,319.306 589.5,320.5C 588.702,320.043 588.369,319.376 588.5,318.5 Z"/></g>
<g><path style="opacity:1" fill="#eff1f6" d="M 594.5,318.5 C 595.675,318.281 596.675,318.614 597.5,319.5C 596.273,320.59 595.44,321.924 595,323.5C 593.964,321.701 593.797,320.034 594.5,318.5 Z"/></g>
<g><path style="opacity:1" fill="#6f93da" d="M 657.5,309.5 C 659.118,313.102 658.785,316.435 656.5,319.5C 650.188,321.987 643.855,324.487 637.5,327C 635.421,327.808 633.421,327.641 631.5,326.5C 638.011,323.414 644.677,320.581 651.5,318C 652.667,316.833 653.833,315.667 655,314.5C 654.54,310.937 653.54,307.604 652,304.5C 654.029,306.033 655.862,307.699 657.5,309.5 Z"/></g>
<g><path style="opacity:1" fill="#e2e8f3" d="M 203.5,319.5 C 205.831,319.498 207.831,320.331 209.5,322C 208.833,322.333 208.167,322.667 207.5,323C 208.711,323.893 208.711,324.726 207.5,325.5C 206.029,324.619 205.196,323.286 205,321.5C 204.308,322.025 203.808,322.692 203.5,323.5C 204.428,324.768 204.595,326.101 204,327.5C 203.102,325.374 201.935,323.374 200.5,321.5C 201.602,320.824 202.602,320.158 203.5,319.5 Z"/></g>
<g><path style="opacity:1" fill="#b6c7e9" d="M 509.5,320.5 C 511.268,319.493 512.601,320.159 513.5,322.5C 512.675,323.386 511.675,323.719 510.5,323.5C 510.737,322.209 510.404,321.209 509.5,320.5 Z"/></g>
<g><path style="opacity:1" fill="#d4ddf0" d="M 550.5,319.5 C 552.983,319.73 553.483,320.397 552,321.5C 550.97,321.164 550.47,320.497 550.5,319.5 Z"/></g>
<g><path style="opacity:1" fill="#c0ceec" d="M 98.5,319.5 C 100.392,320.702 102.226,322.035 104,323.5C 104.667,324.167 104.667,324.833 104,325.5C 101.273,324.241 99.4394,322.241 98.5,319.5 Z"/></g>
<g><path style="opacity:1" fill="#6b8fd9" d="M 260.5,300.5 C 261.628,307.42 261.795,314.42 261,321.5C 259.5,323.469 257.667,324.802 255.5,325.5C 243.5,325.5 231.5,325.5 219.5,325.5C 219.5,324.5 219.5,323.5 219.5,322.5C 231.838,322.667 244.171,322.5 256.5,322C 257.126,321.25 257.626,320.416 258,319.5C 257.869,312.754 258.702,306.421 260.5,300.5 Z"/></g>
<g><path style="opacity:1" fill="#cdd9ef" d="M 439.5,322.5 C 445.882,322.772 446.048,323.772 440,325.5C 439.517,324.552 439.351,323.552 439.5,322.5 Z"/></g>
<g><path style="opacity:1" fill="#e2e7f3" d="M 119.5,325.5 C 120.5,325.5 121.5,325.5 122.5,325.5C 122.451,331.831 121.451,331.831 119.5,325.5 Z"/></g>
<g><path style="opacity:1" fill="#c8d5ee" d="M 430.5,321.5 C 434.403,322.462 434.403,323.629 430.5,325C 431.96,325.811 432.293,326.645 431.5,327.5C 428.001,325.88 427.668,323.88 430.5,321.5 Z"/></g>
<g><path style="opacity:1" fill="#d2dcf0" d="M 206.5,326.5 C 208.942,326.119 209.609,326.786 208.5,328.5C 211.413,330.901 211.079,332.234 207.5,332.5C 207.483,330.435 207.15,328.435 206.5,326.5 Z"/></g>
<g><path style="opacity:1" fill="#cad6ee" d="M 545.5,327.5 C 546.686,328.961 546.686,330.295 545.5,331.5C 545.586,330.504 545.252,329.671 544.5,329C 543.062,328.781 541.729,328.281 540.5,327.5C 541.887,327.193 543.554,327.193 545.5,327.5 Z"/></g>
<g><path style="opacity:1" fill="#bacaea" d="M 594.5,325.5 C 595.552,325.351 596.552,325.517 597.5,326C 592.387,327.731 592.387,329.064 597.5,330C 594.945,331.747 592.945,331.081 591.5,328C 592.571,327.148 593.571,326.315 594.5,325.5 Z"/></g>
<g><path style="opacity:1" fill="#bdcdeb" d="M 504.5,327.5 C 509.662,329.729 509.329,330.395 503.5,329.5C 503.863,328.817 504.196,328.15 504.5,327.5 Z"/></g>
<g><path style="opacity:1" fill="#f4f5f7" d="M 535.5,332.5 C 535.461,331.244 535.961,330.244 537,329.5C 537.585,330.998 537.085,331.998 535.5,332.5 Z"/></g>
<g><path style="opacity:1" fill="#a2b8e5" d="M 199.5,330.5 C 207.384,331.387 207.384,332.387 199.5,333.5C 198.438,332.575 198.438,331.575 199.5,330.5 Z"/></g>
<g><path style="opacity:1" fill="#acbfe7" d="M 147.5,325.5 C 148.774,326.189 148.774,327.023 147.5,328C 148.167,328.333 148.833,328.667 149.5,329C 148.299,329.903 147.465,331.069 147,332.5C 145.513,331.845 144.347,330.845 143.5,329.5C 143.938,328.494 144.604,328.494 145.5,329.5C 146.362,328.234 147.029,326.901 147.5,325.5 Z"/></g>
<g><path style="opacity:1" fill="#6088d7" d="M 353.5,300.5 C 353.833,301.167 354.167,301.833 354.5,302.5C 354.833,320.845 354.5,339.179 353.5,357.5C 352.914,357.291 352.414,356.957 352,356.5C 351.833,347.167 351.667,337.833 351.5,328.5C 351.502,318.809 352.168,309.475 353.5,300.5 Z"/></g>
<g><path style="opacity:1" fill="#c1cfec" d="M 442.5,328.5 C 445.534,328.609 446.534,329.943 445.5,332.5C 444.066,331.412 443.066,330.078 442.5,328.5 Z"/></g>
<g><path style="opacity:1" fill="#e0e7f3" d="M 545.5,331.5 C 544.86,333.332 543.86,333.665 542.5,332.5C 543.325,331.614 544.325,331.281 545.5,331.5 Z"/></g>
<g><path style="opacity:1" fill="#e8ecf4" d="M 431.5,332.5 C 432.496,332.414 433.329,332.748 434,333.5C 435.565,339.166 437.065,344.832 438.5,350.5C 434.833,350.5 431.167,350.5 427.5,350.5C 427.89,344.274 429.224,338.274 431.5,332.5 Z"/></g>
<g><path style="opacity:1" fill="#e3e8f3" d="M 535.5,332.5 C 535.762,333.978 535.429,335.311 534.5,336.5C 533.579,334.969 533.912,333.635 535.5,332.5 Z"/></g>
<g><path style="opacity:1" fill="#d8e0f1" d="M 121.5,331.5 C 123.285,331.926 124.285,333.092 124.5,335C 123.429,337.424 122.429,339.924 121.5,342.5C 121.167,342.167 120.833,341.833 120.5,341.5C 121.189,339.556 121.689,337.556 122,335.5C 122.654,336.696 123.154,336.696 123.5,335.5C 122.37,334.378 121.703,333.044 121.5,331.5 Z"/></g>
<g><path style="opacity:1" fill="#d0dbf0" d="M 145.5,338.5 C 145.5,336.833 145.5,335.167 145.5,333.5C 149.099,333.262 149.433,334.262 146.5,336.5C 149.081,338.91 148.748,339.576 145.5,338.5 Z"/></g>
<g><path style="opacity:1" fill="#e5eaf4" d="M 205.5,333.5 C 206.82,334.942 208.486,335.608 210.5,335.5C 210.785,337.288 210.452,338.955 209.5,340.5C 208.12,338.138 206.787,335.805 205.5,333.5 Z"/></g>
<g><path style="opacity:1" fill="#d6dff0" d="M 521.5,333.5 C 522.675,333.281 523.675,333.614 524.5,334.5C 522.862,335.958 521.195,336.292 519.5,335.5C 520.243,334.818 520.909,334.151 521.5,333.5 Z"/></g>
<g><path style="opacity:1" fill="#e6ebf4" d="M 141.5,335.5 C 142.376,335.369 143.043,335.702 143.5,336.5C 141.192,337.873 140.525,337.54 141.5,335.5 Z"/></g>
<g><path style="opacity:1" fill="#e4e9f4" d="M 214.5,336.5 C 217.012,337.216 217.012,338.216 214.5,339.5C 213.913,338.767 213.913,337.767 214.5,336.5 Z"/></g>
<g><path style="opacity:1" fill="#5d86d6" d="M 307.5,341.5 C 307.666,348.508 307.5,355.508 307,362.5C 305.933,363.191 304.766,363.691 303.5,364C 291.167,364.667 278.833,364.667 266.5,364C 266,363.5 265.5,363 265,362.5C 264.5,355.174 264.334,347.841 264.5,340.5C 264.611,339.883 264.944,339.383 265.5,339C 279.179,338.167 292.846,338.334 306.5,339.5C 306.863,340.183 307.196,340.85 307.5,341.5 Z"/></g>
<g><path style="opacity:1" fill="#dbe3f2" d="M 441.5,337.5 C 442.756,337.461 443.756,337.961 444.5,339C 443.151,339.772 442.318,340.939 442,342.5C 441.506,340.866 441.34,339.199 441.5,337.5 Z"/></g>
<g><path style="opacity:1" fill="#b8c8ea" d="M 491.5,336.5 C 492.334,338.263 491.834,339.93 490,341.5C 489.387,339.505 489.887,337.838 491.5,336.5 Z"/></g>
<g><path style="opacity:1" fill="#d5def1" d="M 513.5,335.5 C 516.428,336.637 516.762,337.97 514.5,339.5C 513.571,338.311 513.238,336.978 513.5,335.5 Z"/></g>
<g><path style="opacity:1" fill="#e2e8f3" d="M 145.5,338.5 C 145.25,339.922 144.417,340.922 143,341.5C 142.481,339.511 143.314,338.511 145.5,338.5 Z"/></g>
<g><path style="opacity:1" fill="#6d91d9" d="M 431.5,340.5 C 433.369,342.635 434.036,345.302 433.5,348.5C 432.5,348.5 431.5,348.5 430.5,348.5C 430.575,345.794 430.908,343.127 431.5,340.5 Z"/></g>
<g><path style="opacity:1" fill="#e0e7f3" d="M 637.5,341.5 C 639.225,341.843 639.725,342.843 639,344.5C 637.961,343.756 637.461,342.756 637.5,341.5 Z"/></g>
<g><path style="opacity:1" fill="#a9bde7" d="M 218.5,339.5 C 220.476,340.427 220.809,341.76 219.5,343.5C 217.678,342.571 216.345,343.238 215.5,345.5C 214.417,344.635 214.251,343.635 215,342.5C 216.729,342.026 217.895,341.026 218.5,339.5 Z"/></g>
<g><path style="opacity:1" fill="#a3b7e5" d="M 626.5,341.5 C 627.649,341.791 628.316,342.624 628.5,344C 628.045,345.724 627.212,347.224 626,348.5C 625.5,348 625,347.5 624.5,347C 625.464,345.275 626.131,343.441 626.5,341.5 Z"/></g>
<g><path style="opacity:1" fill="#dae2f2" d="M 499.5,339.5 C 500.239,339.369 500.906,339.536 501.5,340C 501.455,342.636 501.288,345.47 501,348.5C 499.851,345.607 499.351,342.607 499.5,339.5 Z"/></g>
<g><path style="opacity:1" fill="#dde4f2" d="M 495.5,344.5 C 498.041,345.623 498.041,346.956 495.5,348.5C 494.692,348.192 494.025,347.692 493.5,347C 494.756,346.583 495.423,345.75 495.5,344.5 Z"/></g>
<g><path style="opacity:1" fill="#5e87d7" d="M 285.5,370.5 C 283.5,370.5 281.5,370.5 279.5,370.5C 276.193,370.937 273.193,370.27 270.5,368.5C 282.82,367.667 295.153,367.167 307.5,367C 308.333,366.167 309.167,365.333 310,364.5C 310.169,358.141 310.669,351.807 311.5,345.5C 312.086,345.709 312.586,346.043 313,346.5C 313.799,353.883 313.632,361.217 312.5,368.5C 311.624,369.251 310.624,369.751 309.5,370C 301.507,370.5 293.507,370.666 285.5,370.5 Z"/></g>
<g><path style="opacity:1" fill="#638bd8" d="M 252.5,333.5 C 253.464,340.746 253.797,348.08 253.5,355.5C 252.373,356.122 251.373,356.955 250.5,358C 240.151,358.832 229.817,358.666 219.5,357.5C 228.816,356.668 238.149,356.168 247.5,356C 248.333,355.167 249.167,354.333 250,353.5C 249.867,346.425 250.7,339.758 252.5,333.5 Z"/></g>
<g><path style="opacity:1" fill="#eceff5" d="M 584.5,346.5 C 587.936,348.481 591.603,349.981 595.5,351C 604.122,352.448 612.622,354.282 621,356.5C 621.758,358.769 621.591,360.936 620.5,363C 617.567,363.893 614.567,364.393 611.5,364.5C 604.707,365.333 599.707,362.833 596.5,357C 594.866,356.506 593.199,356.34 591.5,356.5C 592.167,355.833 592.833,355.167 593.5,354.5C 600.879,357.455 608.546,359.455 616.5,360.5C 619.648,359.92 619.981,358.92 617.5,357.5C 608.551,356.428 599.885,354.428 591.5,351.5C 590.287,351.747 589.62,352.414 589.5,353.5C 587.676,351.263 586.009,348.929 584.5,346.5 Z"/></g>
<g><path style="opacity:1" fill="#e1e7f3" d="M 202.5,356.5 C 203.215,354.437 203.215,352.104 202.5,349.5C 201.391,349.443 200.391,349.11 199.5,348.5C 198.735,347.34 197.735,346.34 196.5,345.5C 195.425,347.902 194.258,350.236 193,352.5C 193.166,346.666 193.166,341 193,335.5C 193.249,338.177 194.249,340.51 196,342.5C 198.646,339.581 201.813,338.581 205.5,339.5C 203.022,341.436 203.022,343.436 205.5,345.5C 206.59,344.609 206.59,343.609 205.5,342.5C 206.365,341.417 207.365,341.251 208.5,342C 207.289,343.113 207.289,344.28 208.5,345.5C 206.318,346.823 205.651,348.49 206.5,350.5C 208.395,349.027 210.061,347.36 211.5,345.5C 212.113,346.98 212.446,348.313 212.5,349.5C 214.191,347.744 216.191,347.244 218.5,348C 217.437,349.188 216.103,349.688 214.5,349.5C 214.5,350.5 214.5,351.5 214.5,352.5C 212.599,352.567 210.766,352.233 209,351.5C 206.062,352.283 203.896,353.95 202.5,356.5 Z"/></g>
<g><path style="opacity:1" fill="#6c90d9" d="M 202.5,349.5 C 198.649,343.422 199.315,343.089 204.5,348.5C 204.043,349.298 203.376,349.631 202.5,349.5 Z"/></g>
<g><path style="opacity:1" fill="#96ade2" d="M 199.5,348.5 C 200.391,349.11 201.391,349.443 202.5,349.5C 203.215,352.104 203.215,354.437 202.5,356.5C 202.344,360.135 201.178,360.468 199,357.5C 198.558,359.679 197.558,360.345 196,359.5C 195.251,358.365 195.417,357.365 196.5,356.5C 197.242,354.65 198.242,353.984 199.5,354.5C 199.192,353.692 198.692,353.025 198,352.5C 197.163,354.007 195.996,354.507 194.5,354C 195.617,352.108 197.284,351.275 199.5,351.5C 199.5,350.5 199.5,349.5 199.5,348.5 Z"/></g>
<g><path style="opacity:1" fill="#d3ddf0" d="M 294.5,351.5 C 296.035,350.212 297.701,350.212 299.5,351.5C 298.052,352.354 296.719,353.354 295.5,354.5C 295.407,353.528 295.074,352.528 294.5,351.5 Z"/></g>
<g><path style="opacity:1" fill="#dde4f2" d="M 503.5,344.5 C 504.181,346.158 505.015,347.825 506,349.5C 506.249,348.376 506.749,347.376 507.5,346.5C 508.331,348.473 508.498,350.473 508,352.5C 508.899,350.673 510.233,349.34 512,348.5C 513.257,348.85 513.591,349.517 513,350.5C 509.474,353.758 505.307,354.925 500.5,354C 499.549,353.282 499.383,352.449 500,351.5C 501.726,352.576 503.559,352.743 505.5,352C 504.5,351.167 503.5,350.333 502.5,349.5C 503.309,347.929 503.643,346.262 503.5,344.5 Z"/></g>
<g><path style="opacity:1" fill="#edf0f6" d="M 657.5,309.5 C 655.862,307.699 654.029,306.033 652,304.5C 653.54,307.604 654.54,310.937 655,314.5C 653.833,315.667 652.667,316.833 651.5,318C 644.677,320.581 638.011,323.414 631.5,326.5C 633.421,327.641 635.421,327.808 637.5,327C 643.855,324.487 650.188,321.987 656.5,319.5C 656.67,320.822 656.337,321.989 655.5,323C 652.833,323.667 650.167,324.333 647.5,325C 644.835,327.604 644.335,330.437 646,333.5C 648.488,335.743 651.154,337.743 654,339.5C 656.084,343.336 658.417,347.003 661,350.5C 661.805,353.696 661.638,356.696 660.5,359.5C 660.054,355.362 658.554,351.695 656,348.5C 656.467,355.803 656.467,363.137 656,370.5C 653.424,377.567 648.924,382.9 642.5,386.5C 627.116,392.65 611.116,394.15 594.5,391C 592.385,390.443 590.385,389.609 588.5,388.5C 588.167,388.833 587.833,389.167 587.5,389.5C 592.46,392.245 597.793,394.078 603.5,395C 610.826,395.5 618.159,395.666 625.5,395.5C 623.723,396.6 621.723,397.434 619.5,398C 612.994,398.396 606.66,398.563 600.5,398.5C 595.199,398.265 590.699,396.265 587,392.5C 584.886,385.771 580.553,383.771 574,386.5C 571.508,384.503 568.675,383.503 565.5,383.5C 567.756,379.989 569.756,376.322 571.5,372.5C 577.943,382.722 587.277,388.222 599.5,389C 609.536,389.756 619.536,389.423 629.5,388C 637.691,385.461 644.524,380.961 650,374.5C 657.29,359.742 655.124,346.575 643.5,335C 631.814,329.437 619.48,326.104 606.5,325C 602.205,323.155 601.538,320.488 604.5,317C 610.282,314.93 615.949,315.263 621.5,318C 623.075,321.242 625.575,323.409 629,324.5C 635.888,321.64 642.721,318.64 649.5,315.5C 650.812,314.855 651.812,313.855 652.5,312.5C 648.968,304.678 643.635,298.678 636.5,294.5C 639.118,293.215 641.618,293.548 644,295.5C 647.841,295.297 651.674,295.297 655.5,295.5C 656.984,300.033 657.65,304.699 657.5,309.5 Z"/></g>
<g><path style="opacity:1" fill="#678dd8" d="M 607.5,318.5 C 611.182,318.335 614.848,318.501 618.5,319C 619.167,319.667 619.833,320.333 620.5,321C 616.469,321.072 612.636,321.906 609,323.5C 606.389,322.5 605.889,320.833 607.5,318.5 Z"/></g>
<g><path style="opacity:1" fill="#d9e1f1" d="M 402.5,351.5 C 404.975,351.747 404.975,352.413 402.5,353.5C 401.537,353.03 401.537,352.363 402.5,351.5 Z"/></g>
<g><path style="opacity:1" fill="#e9ecf4" d="M 516.5,351.5 C 521.179,351.334 525.845,351.501 530.5,352C 532.99,353.128 533.99,355.128 533.5,358C 533.99,360.872 532.99,362.872 530.5,364C 525.845,364.499 521.179,364.666 516.5,364.5C 516.5,360.167 516.5,355.833 516.5,351.5 Z"/></g>
<g><path style="opacity:1" fill="#dde4f2" d="M 446.5,352.5 C 447.376,352.369 448.043,352.702 448.5,353.5C 446.192,354.873 445.525,354.54 446.5,352.5 Z"/></g>
<g><path style="opacity:1" fill="#d8e0f1" d="M 210.5,353.5 C 211.995,353.415 212.995,354.081 213.5,355.5C 211.604,356.639 210.604,355.973 210.5,353.5 Z"/></g>
<g><path style="opacity:1" fill="#d4def0" d="M 405.5,355.5 C 406.946,354.387 408.613,354.22 410.5,355C 408.861,356.519 407.194,356.686 405.5,355.5 Z"/></g>
<g><path style="opacity:1" fill="#d5def0" d="M 420.5,353.5 C 421.922,353.75 422.922,354.583 423.5,356C 421.511,356.519 420.511,355.686 420.5,353.5 Z"/></g>
<g><path style="opacity:1" fill="#6c90d9" d="M 593.5,354.5 C 592.292,353.766 590.959,353.433 589.5,353.5C 589.62,352.414 590.287,351.747 591.5,351.5C 599.885,354.428 608.551,356.428 617.5,357.5C 619.981,358.92 619.648,359.92 616.5,360.5C 608.546,359.455 600.879,357.455 593.5,354.5 Z"/></g>
<g><path style="opacity:1" fill="#c1cfec" d="M 297.5,354.5 C 298.525,354.897 298.692,355.563 298,356.5C 295.516,359.259 294.35,358.926 294.5,355.5C 295.791,355.737 296.791,355.404 297.5,354.5 Z"/></g>
<g><path style="opacity:1" fill="#eceff5" d="M 439.5,354.5 C 441.273,355.314 441.773,356.648 441,358.5C 439.812,357.437 439.312,356.103 439.5,354.5 Z"/></g>
<g><path style="opacity:1" fill="#6c91d9" d="M 520.5,354.5 C 524.394,354.11 528.06,354.777 531.5,356.5C 531.291,357.086 530.957,357.586 530.5,358C 526.627,357.849 523.294,359.016 520.5,361.5C 517.962,359.26 517.962,356.927 520.5,354.5 Z"/></g>
<g><path style="opacity:1" fill="#dde4f2" d="M 433.5,354.5 C 436.113,355.095 436.113,355.929 433.5,357C 435.883,358.197 435.55,359.03 432.5,359.5C 431.833,359.167 431.167,358.833 430.5,358.5C 431.524,357.148 432.524,355.815 433.5,354.5 Z"/></g>
<g><path style="opacity:1" fill="#e3e8f3" d="M 510.5,354.5 C 511.451,355.919 511.784,357.585 511.5,359.5C 508.05,360.244 506.384,358.91 506.5,355.5C 508.099,355.768 509.432,355.434 510.5,354.5 Z"/></g>
<g><path style="opacity:1" fill="#7f9fde" d="M 660.5,359.5 C 660.985,377.874 652.318,389.208 634.5,393.5C 637.088,391.375 640.088,390.042 643.5,389.5C 643.737,388.209 643.404,387.209 642.5,386.5C 648.924,382.9 653.424,377.567 656,370.5C 656.467,363.137 656.467,355.803 656,348.5C 658.554,351.695 660.054,355.362 660.5,359.5 Z"/></g>
<g><path style="opacity:1" fill="#dce3f2" d="M 204.5,358.5 C 205.849,357.203 207.182,357.37 208.5,359C 207.44,360.298 206.274,361.465 205,362.5C 204.5,362.333 204,362.167 203.5,362C 205.311,360.959 205.645,359.793 204.5,358.5 Z"/></g>
<g><path style="opacity:1" fill="#b3c5e9" d="M 216.5,359.5 C 228.598,360.148 240.598,360.814 252.5,361.5C 240.12,362.146 228.12,361.479 216.5,359.5 Z"/></g>
<g><path style="opacity:1" fill="#dae2f1" d="M 495.5,361.5 C 496.043,361.56 496.376,361.893 496.5,362.5C 495.277,363.614 493.944,363.781 492.5,363C 493.737,362.768 494.737,362.268 495.5,361.5 Z"/></g>
<g><path style="opacity:1" fill="#d2dcf0" d="M 548.5,364.5 C 549.94,366.42 549.607,368.087 547.5,369.5C 546.799,367.808 547.133,366.142 548.5,364.5 Z"/></g>
<g><path style="opacity:1" fill="#eceff5" d="M 495.5,366.5 C 497.337,366.639 497.67,367.306 496.5,368.5C 495.702,368.043 495.369,367.376 495.5,366.5 Z"/></g>
<g><path style="opacity:1" fill="#b6c6e9" d="M 201.5,366.5 C 202.833,366.5 204.167,366.5 205.5,366.5C 205.649,367.552 205.483,368.552 205,369.5C 203.333,368.167 201.667,368.167 200,369.5C 199.761,368.212 200.261,367.212 201.5,366.5 Z"/></g>
<g><path style="opacity:1" fill="#dde4f2" d="M 362.5,365.5 C 364.332,366.14 364.665,367.14 363.5,368.5C 362.614,367.675 362.281,366.675 362.5,365.5 Z"/></g>
<g><path style="opacity:1" fill="#6a8fd9" d="M 259.5,368.5 C 260.496,368.414 261.329,368.748 262,369.5C 262.667,376.167 262.667,382.833 262,389.5C 261.215,391.286 260.049,392.786 258.5,394C 236.833,394.667 215.167,394.667 193.5,394C 192.663,392.989 192.33,391.822 192.5,390.5C 214.169,390.667 235.836,390.5 257.5,390C 258.126,389.25 258.626,388.416 259,387.5C 259.5,381.175 259.666,374.842 259.5,368.5 Z"/></g>
<g><path style="opacity:1" fill="#dce3f2" d="M 535.5,366.5 C 536.75,366.577 537.583,367.244 538,368.5C 541.312,367.545 541.312,367.879 538,369.5C 536.251,369.252 535.418,368.252 535.5,366.5 Z"/></g>
<g><path style="opacity:1" fill="#d4ddf0" d="M 196.5,370.5 C 197.975,371.262 199.309,371.595 200.5,371.5C 197.339,374.559 196.005,374.226 196.5,370.5 Z"/></g>
<g><path style="opacity:1" fill="#d5dff1" d="M 371.5,369.5 C 374.041,370.623 374.041,371.956 371.5,373.5C 371.094,372.443 371.094,371.109 371.5,369.5 Z"/></g>
<g><path style="opacity:1" fill="#b4c5e9" d="M 378.5,369.5 C 380.912,369.694 381.912,371.027 381.5,373.5C 380.448,373.649 379.448,373.483 378.5,373C 379.171,372.014 379.171,370.847 378.5,369.5 Z"/></g>
<g><path style="opacity:1" fill="#d8e0f1" d="M 547.5,372.5 C 548.239,372.369 548.906,372.536 549.5,373C 548.95,374.845 547.95,376.345 546.5,377.5C 546.167,377.333 545.833,377.167 545.5,377C 546.267,375.53 546.933,374.03 547.5,372.5 Z"/></g>
<g><path style="opacity:1" fill="#c4d1ed" d="M 532.5,373.5 C 534.288,373.215 535.955,373.548 537.5,374.5C 536.667,374.833 535.833,375.167 535,375.5C 533.624,375.316 532.791,374.649 532.5,373.5 Z"/></g>
<g><path style="opacity:1" fill="#ced9ef" d="M 227.5,377.5 C 228.189,376.226 229.023,376.226 230,377.5C 230.749,378.635 230.583,379.635 229.5,380.5C 228.824,379.398 228.158,378.398 227.5,377.5 Z"/></g>
<g><path style="opacity:1" fill="#e9edf5" d="M 376.5,373.5 C 377.325,375.125 376.992,376.792 375.5,378.5C 374.799,376.808 375.133,375.142 376.5,373.5 Z"/></g>
<g><path style="opacity:1" fill="#dfe6f3" d="M 549.5,376.5 C 553.133,376.443 553.3,377.443 550,379.5C 549.517,378.552 549.351,377.552 549.5,376.5 Z"/></g>
<g><path style="opacity:1" fill="#6b8fd9" d="M 400.5,394.5 C 397.794,394.425 395.127,394.092 392.5,393.5C 392.414,392.504 392.748,391.671 393.5,391C 401.167,390.667 408.833,390.333 416.5,390C 417.667,388.833 418.833,387.667 420,386.5C 420.644,383.391 421.811,380.557 423.5,378C 429.825,377.5 436.158,377.334 442.5,377.5C 442.67,378.822 442.337,379.989 441.5,381C 436.167,381.333 430.833,381.667 425.5,382C 423.965,384.624 422.798,387.457 422,390.5C 420.421,392.041 418.587,393.208 416.5,394C 411.177,394.499 405.844,394.666 400.5,394.5 Z"/></g>
<g><path style="opacity:1" fill="#dce4f2" d="M 362.5,381.5 C 364.337,381.639 364.67,382.306 363.5,383.5C 362.702,383.043 362.369,382.376 362.5,381.5 Z"/></g>
<g><path style="opacity:1" fill="#adc1e8" d="M 537.5,387.5 C 520.931,388.18 504.265,388.847 487.5,389.5C 503.8,387.515 520.466,386.848 537.5,387.5 Z"/></g>
<g><path style="opacity:1" fill="#6a8fd9" d="M 642.5,386.5 C 643.404,387.209 643.737,388.209 643.5,389.5C 640.088,390.042 637.088,391.375 634.5,393.5C 631.583,394.417 628.583,395.084 625.5,395.5C 618.159,395.666 610.826,395.5 603.5,395C 597.793,394.078 592.46,392.245 587.5,389.5C 587.833,389.167 588.167,388.833 588.5,388.5C 590.385,389.609 592.385,390.443 594.5,391C 611.116,394.15 627.116,392.65 642.5,386.5 Z"/></g>
<g><path style="opacity:1" fill="#eaeaea" d="M 437.5,457.5 C 436.833,451.986 436.167,446.319 435.5,440.5C 434.336,446.807 434.169,453.141 435,459.5C 436.356,460.38 437.856,460.714 439.5,460.5C 436.154,461.271 432.654,461.938 429,462.5C 427.85,461.576 426.85,461.576 426,462.5C 425.283,461.956 424.783,461.289 424.5,460.5C 426.827,460.753 428.827,460.086 430.5,458.5C 428.269,458.113 425.936,457.947 423.5,458C 422.643,457.311 421.977,456.478 421.5,455.5C 424.768,454.513 428.102,454.18 431.5,454.5C 431.146,448.644 428.146,446.477 422.5,448C 419.814,450.546 418.814,453.713 419.5,457.5C 417.435,457.517 415.435,457.85 413.5,458.5C 414.683,455.297 416.016,452.13 417.5,449C 417.167,448.5 416.833,448 416.5,447.5C 414.833,450.167 413.167,452.833 411.5,455.5C 410.197,452.563 408.53,449.897 406.5,447.5C 406.167,447.833 405.833,448.167 405.5,448.5C 406.372,450.45 407.039,452.45 407.5,454.5C 406.761,454.369 406.094,454.536 405.5,455C 404.947,456.878 403.947,458.378 402.5,459.5C 402.631,458.761 402.464,458.094 402,457.5C 398.857,459.172 396.357,458.506 394.5,455.5C 397.768,454.513 401.102,454.18 404.5,454.5C 404.312,451.794 403.312,449.461 401.5,447.5C 402.915,446.711 404.415,446.044 406,445.5C 413.513,446.234 421.013,446.567 428.5,446.5C 431.329,446.176 431.996,444.843 430.5,442.5C 432.578,440.014 435.245,439.014 438.5,439.5C 438.034,445.491 437.701,451.491 437.5,457.5 Z"/></g>
<g><path style="opacity:1" fill="#141414" d="M 437.5,457.5 C 438.551,458.222 439.218,459.222 439.5,460.5C 437.856,460.714 436.356,460.38 435,459.5C 434.169,453.141 434.336,446.807 435.5,440.5C 436.167,446.319 436.833,451.986 437.5,457.5 Z"/></g>
<g><path style="opacity:1" fill="#6a6a6a" d="M 278.5,456.5 C 277.674,451.684 277.174,446.684 277,441.5C 276.501,447.157 276.334,452.824 276.5,458.5C 275.51,452.69 275.177,446.69 275.5,440.5C 276.5,440.5 277.5,440.5 278.5,440.5C 278.5,445.833 278.5,451.167 278.5,456.5 Z"/></g>
<g><path style="opacity:1" fill="#272727" d="M 340.5,447.5 C 342.527,447.338 344.527,447.505 346.5,448C 346.957,448.414 347.291,448.914 347.5,449.5C 345.693,449.323 343.693,449.656 341.5,450.5C 338.833,452.833 338.833,455.167 341.5,457.5C 343.353,458.76 345.186,458.76 347,457.5C 347.617,458.449 347.451,459.282 346.5,460C 339.717,461.218 336.884,458.384 338,451.5C 338.662,450.016 339.496,448.683 340.5,447.5 Z"/></g>
<g><path style="opacity:1" fill="#262626" d="M 424.5,460.5 C 422.589,459.925 420.922,458.925 419.5,457.5C 418.814,453.713 419.814,450.546 422.5,448C 428.146,446.477 431.146,448.644 431.5,454.5C 428.102,454.18 424.768,454.513 421.5,455.5C 421.977,456.478 422.643,457.311 423.5,458C 425.936,457.947 428.269,458.113 430.5,458.5C 428.827,460.086 426.827,460.753 424.5,460.5 Z"/></g>
<g><path style="opacity:1" fill="#e4e4e4" d="M 423.5,449.5 C 425.665,449.116 427.332,449.783 428.5,451.5C 426.167,452.833 423.833,452.833 421.5,451.5C 422.243,450.818 422.909,450.151 423.5,449.5 Z"/></g>
<g><path style="opacity:1" fill="#323232" d="M 249.5,449.5 C 251.631,450.314 253.964,450.814 256.5,451C 253.964,451.186 251.631,451.686 249.5,452.5C 249.813,455.247 249.48,457.914 248.5,460.5C 247.503,453.866 247.17,447.2 247.5,440.5C 251.226,440.177 254.893,440.511 258.5,441.5C 255.572,442.484 252.572,442.817 249.5,442.5C 249.5,444.833 249.5,447.167 249.5,449.5 Z"/></g>
<g><path style="opacity:1" fill="#757575" d="M 249.5,449.5 C 252.167,449.5 254.833,449.5 257.5,449.5C 257.5,450.5 257.5,451.5 257.5,452.5C 254.833,452.5 252.167,452.5 249.5,452.5C 251.631,451.686 253.964,451.186 256.5,451C 253.964,450.814 251.631,450.314 249.5,449.5 Z"/></g>
<g><path style="opacity:1" fill="#393939" d="M 292.5,451.5 C 294.924,451.192 297.257,451.526 299.5,452.5C 298.333,452.833 297.167,453.167 296,453.5C 294.319,453.392 293.152,452.725 292.5,451.5 Z"/></g>
<g><path style="opacity:1" fill="#303030" d="M 372.5,440.5 C 377.412,440.063 382.078,440.896 386.5,443C 391.346,450.051 390.013,455.717 382.5,460C 379.183,460.498 375.85,460.665 372.5,460.5C 372.5,453.833 372.5,447.167 372.5,440.5 Z"/></g>
<g><path style="opacity:1" fill="#f3f3f3" d="M 375.5,442.5 C 386.668,442.811 389.334,447.645 383.5,457C 380.986,458.252 378.32,458.752 375.5,458.5C 375.5,453.167 375.5,447.833 375.5,442.5 Z"/></g>
<g><path style="opacity:1" fill="#272727" d="M 401.5,447.5 C 403.312,449.461 404.312,451.794 404.5,454.5C 401.102,454.18 397.768,454.513 394.5,455.5C 396.357,458.506 398.857,459.172 402,457.5C 402.464,458.094 402.631,458.761 402.5,459.5C 394.725,461.562 391.559,458.562 393,450.5C 395.196,447.875 398.03,446.875 401.5,447.5 Z"/></g>
<g><path style="opacity:1" fill="#dfdfdf" d="M 395.5,449.5 C 397.977,449.051 399.977,449.717 401.5,451.5C 399.167,452.833 396.833,452.833 394.5,451.5C 394.863,450.817 395.196,450.15 395.5,449.5 Z"/></g>
<g><path style="opacity:1" fill="#1c1c1c" d="M 458.5,447.5 C 461.403,447.907 464.403,448.074 467.5,448C 471.096,451.272 471.429,454.938 468.5,459C 465.986,460.252 463.32,460.752 460.5,460.5C 460.785,462.288 460.452,463.955 459.5,465.5C 458.504,459.537 458.171,453.537 458.5,447.5 Z"/></g>
<g><path style="opacity:1" fill="#eaeaea" d="M 463.5,449.5 C 467.976,449.822 469.476,452.156 468,456.5C 465.925,458.648 463.592,458.982 461,457.5C 460.503,455.19 460.337,452.857 460.5,450.5C 461.791,450.737 462.791,450.404 463.5,449.5 Z"/></g>
<g><path style="opacity:1" fill="#343434" d="M 304.5,447.5 C 306.989,447.298 309.323,447.798 311.5,449C 311,449.5 310.5,450 310,450.5C 308.506,449.253 307.006,449.253 305.5,450.5C 306.738,452.637 308.571,453.971 311,454.5C 312.261,460.08 310.094,461.913 304.5,460C 303.692,459.692 303.025,459.192 302.5,458.5C 304.343,458.245 306.343,458.078 308.5,458C 308.957,457.586 309.291,457.086 309.5,456.5C 307.092,455.547 304.925,454.213 303,452.5C 302.387,450.505 302.887,448.838 304.5,447.5 Z"/></g>
<g><path style="opacity:1" fill="#242424" d="M 476.5,447.5 C 482.434,446.283 485.434,448.616 485.5,454.5C 482.102,454.18 478.768,454.513 475.5,455.5C 475.977,456.478 476.643,457.311 477.5,458C 479.995,458.157 482.328,458.324 484.5,458.5C 476.347,462.192 472.847,459.526 474,450.5C 475.045,449.627 475.878,448.627 476.5,447.5 Z"/></g>
<g><path style="opacity:1" fill="#ebebeb" d="M 477.5,449.5 C 479.665,449.116 481.332,449.783 482.5,451.5C 480.5,452.833 478.5,452.833 476.5,451.5C 476.863,450.817 477.196,450.15 477.5,449.5 Z"/></g>
<g><path style="opacity:1" fill="#3d3d3d" d="M 314.5,444.5 C 315.5,444.5 316.5,444.5 317.5,444.5C 317.5,445.5 317.5,446.5 317.5,447.5C 322.833,448.167 322.833,448.833 317.5,449.5C 317.5,452.5 317.5,455.5 317.5,458.5C 318.978,458.238 320.311,458.571 321.5,459.5C 318.727,460.931 316.561,460.264 315,457.5C 314.501,453.179 314.334,448.846 314.5,444.5 Z"/></g>
<g><path style="opacity:1" fill="#585858" d="M 355.5,453.5 C 355.5,453.833 355.5,454.167 355.5,454.5C 354.539,456.265 354.205,458.265 354.5,460.5C 353.5,460.5 352.5,460.5 351.5,460.5C 351.5,453.833 351.5,447.167 351.5,440.5C 352.5,440.5 353.5,440.5 354.5,440.5C 354.182,445.032 354.515,449.366 355.5,453.5 Z"/></g>
<g><path style="opacity:1" fill="#333333" d="M 355.5,454.5 C 355.5,454.167 355.5,453.833 355.5,453.5C 356.702,451.608 358.035,449.774 359.5,448C 360.5,447.333 361.5,447.333 362.5,448C 360.649,449.684 358.982,451.517 357.5,453.5C 359.167,455.5 360.833,457.5 362.5,459.5C 359.562,459.31 357.229,457.643 355.5,454.5 Z"/></g>
<g><path style="opacity:1" fill="#2a2a2a" d="M 413.5,458.5 C 413.189,459.478 412.522,460.145 411.5,460.5C 410.143,458.435 408.81,456.435 407.5,454.5C 407.039,452.45 406.372,450.45 405.5,448.5C 405.833,448.167 406.167,447.833 406.5,447.5C 408.53,449.897 410.197,452.563 411.5,455.5C 413.167,452.833 414.833,450.167 416.5,447.5C 416.833,448 417.167,448.5 417.5,449C 416.016,452.13 414.683,455.297 413.5,458.5 Z"/></g>
<g><path style="opacity:1" fill="#373737" d="M 326.5,447.5 C 332.493,446.826 335.159,449.493 334.5,455.5C 334.167,457.167 333.833,458.833 333.5,460.5C 330.869,460.406 328.202,460.072 325.5,459.5C 323.791,454.2 325.791,451.867 331.5,452.5C 331.5,451.5 331.5,450.5 331.5,449.5C 329.738,449.357 328.071,449.691 326.5,450.5C 325.438,449.575 325.438,448.575 326.5,447.5 Z"/></g>
<g><path style="opacity:1" fill="#dddddd" d="M 327.5,454.5 C 329.665,454.116 331.332,454.783 332.5,456.5C 331.131,458.124 329.464,458.624 327.5,458C 326.316,456.855 326.316,455.688 327.5,454.5 Z"/></g>
<g><path style="opacity:1" fill="#2b2b2b" d="M 488.5,447.5 C 490.858,448.114 493.192,448.447 495.5,448.5C 493.807,449.228 492.307,450.228 491,451.5C 490.821,454.553 490.321,457.553 489.5,460.5C 488.508,456.217 488.174,451.884 488.5,447.5 Z"/></g>
<g><path style="opacity:1" fill="#313131" d="M 260.5,447.5 C 262.237,450.008 263.07,453.008 263,456.5C 264.427,458.787 266.261,459.12 268.5,457.5C 269.167,454.167 269.833,450.833 270.5,447.5C 271.833,451.833 271.833,456.167 270.5,460.5C 268.89,459.448 267.223,459.448 265.5,460.5C 263.813,460.24 262.313,459.573 261,458.5C 260.501,454.848 260.335,451.182 260.5,447.5 Z"/></g>
<g><path style="opacity:1" fill="#292929" d="M 278.5,456.5 C 278.881,457.931 279.881,458.764 281.5,459C 279.549,461.065 277.882,460.898 276.5,458.5C 276.334,452.824 276.501,447.157 277,441.5C 277.174,446.684 277.674,451.684 278.5,456.5 Z"/></g>
<g><path style="opacity:1" fill="#444444" d="M 284.5,440.5 C 286.453,446.074 287.12,452.074 286.5,458.5C 287.675,458.281 288.675,458.614 289.5,459.5C 286.871,461.05 285.037,460.384 284,457.5C 283.215,451.751 283.382,446.084 284.5,440.5 Z"/></g>
<g><path style="opacity:1" fill="#272727" d="M 445.5,447.5 C 451.02,446.684 454.353,449.017 455.5,454.5C 452.53,460.925 448.364,461.925 443,457.5C 442.219,456.271 441.719,454.938 441.5,453.5C 442.432,451.235 443.765,449.235 445.5,447.5 Z"/></g>
<g><path style="opacity:1" fill="#f6f6f6" d="M 446.5,449.5 C 452.643,450.026 453.976,452.86 450.5,458C 445.504,458.664 443.67,456.498 445,451.5C 445.717,450.956 446.217,450.289 446.5,449.5 Z"/></g>
</svg>
