<?xml version="1.0" encoding="UTF-8"?>
<!DOCTYPE svg PUBLIC "-//W3C//DTD SVG 1.1//EN" "http://www.w3.org/Graphics/SVG/1.1/DTD/svg11.dtd">
<svg xmlns="http://www.w3.org/2000/svg" version="1.1" width="755px" height="755px" style="shape-rendering:geometricPrecision; text-rendering:geometricPrecision; image-rendering:optimizeQuality; fill-rule:evenodd; clip-rule:evenodd" xmlns:xlink="http://www.w3.org/1999/xlink">
<g><path style="opacity:1" fill="#f7f7f7" d="M -0.5,-0.5 C 251.167,-0.5 502.833,-0.5 754.5,-0.5C 754.5,251.167 754.5,502.833 754.5,754.5C 502.833,754.5 251.167,754.5 -0.5,754.5C -0.5,502.833 -0.5,251.167 -0.5,-0.5 Z"/></g>
<g><path style="opacity:1" fill="#ff6a69" d="M 599.5,288.5 C 611.269,288.019 622.935,288.852 634.5,291C 642.313,295.076 647.98,301.243 651.5,309.5C 651.023,310.478 650.357,311.311 649.5,312C 642.362,315.321 635.195,318.488 628,321.5C 624.575,320.409 622.075,318.242 620.5,315C 614.949,312.263 609.282,311.93 603.5,314C 600.538,317.488 601.205,320.155 605.5,322C 618.48,323.104 630.814,326.437 642.5,332C 654.124,343.575 656.29,356.742 649,371.5C 641.527,380.154 632.027,384.987 620.5,386C 609.715,387.025 599.049,386.358 588.5,384C 581.137,380.824 575.137,375.99 570.5,369.5C 568.808,373.717 566.474,377.55 563.5,381C 549.832,390.891 534.499,394.391 517.5,391.5C 509.167,391.167 500.833,390.833 492.5,390.5C 492.167,389.833 491.833,389.167 491.5,388.5C 507.823,387.667 524.156,387.167 540.5,387C 561.491,383.682 570.657,371.516 568,350.5C 570.003,353.5 570.836,356.833 570.5,360.5C 577.513,357.729 584.679,355.396 592,353.5C 593.167,353.667 594.333,353.833 595.5,354C 597.36,357.867 600.36,360.2 604.5,361C 609.838,361.879 615.004,361.379 620,359.5C 620.758,357.231 620.591,355.064 619.5,353C 611.2,351.175 602.867,349.508 594.5,348C 575.261,342.743 567.428,330.243 571,310.5C 573.285,302.549 578.119,296.715 585.5,293C 590.139,291.179 594.805,289.679 599.5,288.5 Z"/></g>
<g><path style="opacity:1" fill="#ff6969" d="M 85.5,290.5 C 95.5056,290.334 105.506,290.5 115.5,291C 116.308,291.308 116.975,291.808 117.5,292.5C 122.328,309.142 127.162,325.809 132,342.5C 134.632,335.99 136.965,329.323 139,322.5C 141.176,312.799 143.676,303.133 146.5,293.5C 147.5,292.667 148.5,291.833 149.5,291C 159.411,290.182 169.244,290.349 179,291.5C 174.723,307.17 170.056,322.837 165,338.5C 160.166,349.844 156.166,361.511 153,373.5C 151.294,377.079 149.461,380.579 147.5,384C 142.233,385.054 136.899,385.554 131.5,385.5C 125.838,385.706 120.338,385.039 115,383.5C 104.529,353.62 94.362,323.62 84.5,293.5C 84.685,292.416 85.0183,291.416 85.5,290.5 Z"/></g>
<g><path style="opacity:1" fill="#ff6968" d="M 215.5,356.5 C 227.12,358.479 239.12,359.146 251.5,358.5C 253.017,358.511 254.184,359.177 255,360.5C 255.667,367.833 255.667,375.167 255,382.5C 254.5,383 254,383.5 253.5,384C 230.826,384.833 208.159,384.666 185.5,383.5C 184.675,356.542 184.175,329.542 184,302.5C 174.365,330.736 164.698,359.069 155,387.5C 154.021,389.32 152.521,390.487 150.5,391C 140.799,391.755 131.132,391.588 121.5,390.5C 121.5,389.5 121.5,388.5 121.5,387.5C 130.839,387.666 140.173,387.5 149.5,387C 150.308,386.692 150.975,386.192 151.5,385.5C 162.392,356.9 172.225,327.9 181,298.5C 183.445,296.442 185.278,293.942 186.5,291C 206.847,290.786 227.18,290.286 247.5,289.5C 250.906,288.948 253.073,290.281 254,293.5C 254.667,300.167 254.667,306.833 254,313.5C 253.626,314.416 253.126,315.25 252.5,316C 240.171,316.5 227.838,316.667 215.5,316.5C 215.5,318.833 215.5,321.167 215.5,323.5C 224.839,323.334 234.173,323.5 243.5,324C 244.416,324.374 245.25,324.874 246,325.5C 246.667,333.167 246.667,340.833 246,348.5C 245.25,349.126 244.416,349.626 243.5,350C 234.173,350.5 224.839,350.666 215.5,350.5C 215.5,352.5 215.5,354.5 215.5,356.5 Z"/></g>
<g><path style="opacity:1" fill="#ff6968" d="M 318.5,290.5 C 328.083,290.182 337.583,290.515 347,291.5C 347.333,313.167 347.667,334.833 348,356.5C 348.5,357 349,357.5 349.5,358C 360.546,358.188 371.546,358.688 382.5,359.5C 383.665,367.145 383.831,374.812 383,382.5C 382.167,383.333 381.333,384.167 380.5,385C 360.167,385.667 339.833,385.667 319.5,385C 319,384.5 318.5,384 318,383.5C 316.848,368.089 316.348,352.589 316.5,337C 316.667,322.167 316.833,307.333 317,292.5C 317.717,291.956 318.217,291.289 318.5,290.5 Z"/></g>
<g><path style="opacity:1" fill="#ff6b6a" d="M 417.5,290.5 C 426.839,290.334 436.173,290.5 445.5,291C 446.416,291.374 447.25,291.874 448,292.5C 458.612,321.393 468.945,350.393 479,379.5C 479.72,381.112 479.554,382.612 478.5,384C 468.833,384.667 459.167,384.667 449.5,384C 446.581,380.754 444.914,376.92 444.5,372.5C 435.808,372.169 427.141,372.502 418.5,373.5C 418.257,379.128 415.591,382.961 410.5,385C 403.174,385.5 395.841,385.666 388.5,385.5C 388.374,388.595 386.707,390.428 383.5,391C 364.5,391.667 345.5,391.667 326.5,391C 325.09,390.632 324.09,389.799 323.5,388.5C 343.492,387.667 363.492,387.167 383.5,387C 385.572,385.207 385.905,383.04 384.5,380.5C 393.697,353.77 403.197,326.436 413,298.5C 414.259,295.644 415.759,292.977 417.5,290.5 Z"/></g>
<g><path style="opacity:1" fill="#ff6a69" d="M 536.5,384.5 C 519.466,383.848 502.8,384.515 486.5,386.5C 485.718,388.451 484.384,389.951 482.5,391C 474.167,391.667 465.833,391.667 457.5,391C 455.998,390.417 454.665,389.584 453.5,388.5C 462.816,387.668 472.149,387.168 481.5,387C 482.108,385.769 482.441,384.436 482.5,383C 472.917,354.697 463.25,326.531 453.5,298.5C 453.733,297.068 454.4,296.568 455.5,297C 456.46,298.419 457.293,299.919 458,301.5C 466.67,325.511 475.337,349.511 484,373.5C 483.846,345.776 484.679,318.276 486.5,291C 503.833,290.333 521.167,290.333 538.5,291C 558.871,295.404 565.704,307.57 559,327.5C 556.473,330.027 553.973,332.527 551.5,335C 564.236,342.679 568.403,353.846 564,368.5C 557.717,378.565 548.551,383.898 536.5,384.5 Z"/></g>
<g><path style="opacity:1" fill="#fae3e2" d="M 97.5,292.5 C 98.5,292.5 99.5,292.5 100.5,292.5C 100.351,293.552 100.517,294.552 101,295.5C 103.106,293.709 105.606,293.042 108.5,293.5C 108.693,297.449 109.193,297.449 110,293.5C 111.044,294.623 111.71,295.956 112,297.5C 113.232,294.77 114.065,294.937 114.5,298C 114.612,299.662 113.946,300.829 112.5,301.5C 111.757,300.092 110.923,298.759 110,297.5C 108.307,299.576 107.64,301.909 108,304.5C 109.458,305.747 110.958,305.747 112.5,304.5C 114.389,305.604 116.055,306.937 117.5,308.5C 115.952,308.212 114.285,308.212 112.5,308.5C 113.711,310.422 115.044,312.255 116.5,314C 114.925,313.621 113.425,313.788 112,314.5C 110.77,313.725 110.437,312.725 111,311.5C 111.718,312.451 112.551,312.617 113.5,312C 110.851,308.509 107.518,306.009 103.5,304.5C 105.335,303.572 105.668,302.406 104.5,301C 105.167,300.667 105.833,300.333 106.5,300C 105.299,299.097 104.465,297.931 104,296.5C 103.348,298.723 101.848,299.89 99.5,300C 100.938,300.219 102.271,300.719 103.5,301.5C 102.092,302.243 100.759,303.077 99.5,304C 100.449,304.617 101.282,304.451 102,303.5C 102.667,304.833 102.667,306.167 102,307.5C 100.601,306.773 99.1012,306.273 97.5,306C 98.6956,305.346 98.6956,304.846 97.5,304.5C 96.8076,305.025 96.3076,305.692 96,306.5C 89.5036,300.993 90.3369,298.16 98.5,298C 98.4351,296.171 98.1018,294.338 97.5,292.5 Z"/></g>
<g><path style="opacity:1" fill="#fcbfbe" d="M 435.5,294.5 C 437.23,297.108 439.063,297.108 441,294.5C 441.167,294.833 441.333,295.167 441.5,295.5C 440.061,297.553 438.061,298.553 435.5,298.5C 435.5,297.167 435.5,295.833 435.5,294.5 Z"/></g>
<g><path style="opacity:1" fill="#fadedd" d="M 618.5,292.5 C 620.378,293.874 621.378,295.874 621.5,298.5C 621.471,300.029 620.804,301.196 619.5,302C 621.002,302.583 622.335,303.416 623.5,304.5C 621.258,303.707 618.758,303.707 616,304.5C 615.667,303.167 615.333,301.833 615,300.5C 614.355,301.646 613.522,302.646 612.5,303.5C 613.911,305.017 613.744,306.351 612,307.5C 610.913,305.068 610.413,305.402 610.5,308.5C 609.448,308.649 608.448,308.483 607.5,308C 609.562,305.932 610.728,303.432 611,300.5C 611.889,301.888 612.389,301.722 612.5,300C 611.981,297.813 610.648,296.313 608.5,295.5C 610.307,294.889 611.973,295.556 613.5,297.5C 614.192,296.975 614.692,296.308 615,295.5C 615.187,297.345 616.02,299.011 617.5,300.5C 618.646,299.855 619.646,299.022 620.5,298C 619.536,296.275 618.869,294.441 618.5,292.5 Z"/></g>
<g><path style="opacity:1" fill="#fe706f" d="M 122.5,297.5 C 124.592,297.561 126.092,298.561 127,300.5C 129.805,310.19 131.971,320.023 133.5,330C 133.577,332.051 133.077,333.884 132,335.5C 128.835,322.839 125.668,310.172 122.5,297.5 Z"/></g>
<g><path style="opacity:1" fill="#ff7270" d="M 257.5,297.5 C 258.496,297.414 259.329,297.748 260,298.5C 260.667,305.167 260.667,311.833 260,318.5C 259.167,319.333 258.333,320.167 257.5,321C 244.574,322.443 231.574,322.943 218.5,322.5C 218.5,321.5 218.5,320.5 218.5,319.5C 230.838,319.667 243.171,319.5 255.5,319C 256.126,318.25 256.626,317.416 257,316.5C 257.5,310.175 257.666,303.842 257.5,297.5 Z"/></g>
<g><path style="opacity:1" fill="#fe6565" d="M 350.5,297.5 C 351.496,297.414 352.329,297.748 353,298.5C 353.833,317.176 353.666,335.842 352.5,354.5C 351.914,354.291 351.414,353.957 351,353.5C 350.5,334.836 350.333,316.17 350.5,297.5 Z"/></g>
<g><path style="opacity:1" fill="#fadede" d="M 631.5,298.5 C 626.348,300.46 626.348,302.293 631.5,304C 630.062,304.219 628.729,304.719 627.5,305.5C 628.629,307.529 628.129,307.863 626,306.5C 625.667,307.167 625.333,307.833 625,308.5C 624.471,306.415 624.971,304.582 626.5,303C 625.073,301.3 624.24,299.467 624,297.5C 624.333,297.167 624.667,296.833 625,296.5C 625.249,297.624 625.749,298.624 626.5,299.5C 627.731,298.349 627.731,297.183 626.5,296C 626.833,295.833 627.167,295.667 627.5,295.5C 628.251,296.376 628.751,297.376 629,298.5C 630.114,294.544 630.947,294.544 631.5,298.5 Z"/></g>
<g><path style="opacity:1" fill="#facfcf" d="M 420.5,298.5 C 421.473,298.987 422.473,299.487 423.5,300C 421.843,300.725 420.843,300.225 420.5,298.5 Z"/></g>
<g><path style="opacity:1" fill="#fbc7c6" d="M 417.5,298.5 C 419.337,298.639 419.67,299.306 418.5,300.5C 417.702,300.043 417.369,299.376 417.5,298.5 Z"/></g>
<g><path style="opacity:1" fill="#fe6d6d" d="M 95.5,300.5 C 96.675,300.281 97.675,300.614 98.5,301.5C 97.277,302.614 95.9437,302.781 94.5,302C 95.056,301.617 95.3893,301.117 95.5,300.5 Z"/></g>
<g><path style="opacity:1" fill="#fcd6d5" d="M 432.5,294.5 C 433.621,296.089 433.454,297.756 432,299.5C 429.323,301.678 426.823,304.011 424.5,306.5C 425.582,306.749 426.915,306.915 428.5,307C 427,307.833 425.833,309 425,310.5C 423.016,307.416 423.182,304.416 425.5,301.5C 425.291,300.914 424.957,300.414 424.5,300C 425.881,293.98 426.547,294.147 426.5,300.5C 430.129,300.205 432.129,298.205 432.5,294.5 Z"/></g>
<g><path style="opacity:1" fill="#f9eaea" d="M 437.5,301.5 C 438.376,301.369 439.043,301.702 439.5,302.5C 437.993,306.355 437.326,306.021 437.5,301.5 Z"/></g>
<g><path style="opacity:1" fill="#fae2e1" d="M 327.5,306.5 C 326.218,305.292 326.218,303.958 327.5,302.5C 328.292,303.7 328.292,305.033 327.5,306.5 Z"/></g>
<g><path style="opacity:1" fill="#fadddd" d="M 338.5,305.5 C 337.833,305.5 337.167,305.5 336.5,305.5C 336.5,304.5 336.5,303.5 336.5,302.5C 335.167,302.5 333.833,302.5 332.5,302.5C 332.662,300.473 332.495,298.473 332,296.5C 330.513,297.253 330.346,298.086 331.5,299C 329.567,299.251 327.734,299.751 326,300.5C 325.911,298.887 326.745,297.72 328.5,297C 327.833,296.333 327.167,295.667 326.5,295C 328.509,295.594 330.509,295.427 332.5,294.5C 333.929,297.817 335.762,298.15 338,295.5C 338.5,295.833 339,296.167 339.5,296.5C 338.5,297.333 337.5,298.167 336.5,299C 337.397,301.087 338.064,303.254 338.5,305.5 Z"/></g>
<g><path style="opacity:1" fill="#fbc7c6" d="M 434.5,300.5 C 435.598,301.601 435.765,302.934 435,304.5C 433.666,303.122 433.499,301.789 434.5,300.5 Z"/></g>
<g><path style="opacity:1" fill="#fcb3b2" d="M 444.5,299.5 C 445.239,299.369 445.906,299.536 446.5,300C 445.783,301.652 445.45,303.152 445.5,304.5C 443.246,303.286 442.913,301.619 444.5,299.5 Z"/></g>
<g><path style="opacity:1" fill="#fbc8c8" d="M 520.5,299.5 C 522.296,300.794 524.296,301.794 526.5,302.5C 524.674,302.92 522.674,302.92 520.5,302.5C 520.5,301.5 520.5,300.5 520.5,299.5 Z"/></g>
<g><path style="opacity:1" fill="#fdcdcb" d="M 441.5,302.5 C 442.776,303.386 442.776,304.386 441.5,305.5C 440.913,304.767 440.913,303.767 441.5,302.5 Z"/></g>
<g><path style="opacity:1" fill="#ff6f6e" d="M 650.5,301.5 C 655.86,304.221 658.027,308.554 657,314.5C 649.712,319.059 641.879,322.392 633.5,324.5C 632.5,324.167 631.5,323.833 630.5,323.5C 637.011,320.414 643.677,317.581 650.5,315C 653.58,313.289 654.746,310.789 654,307.5C 652.558,305.609 651.391,303.609 650.5,301.5 Z"/></g>
<g><path style="opacity:1" fill="#f9e6e6" d="M 327.5,306.5 C 328.847,305.972 330.181,305.805 331.5,306C 330.182,307.63 328.849,307.797 327.5,306.5 Z"/></g>
<g><path style="opacity:1" fill="#ff9f9c" d="M 336.5,305.5 C 337.167,305.5 337.833,305.5 338.5,305.5C 338.833,306.167 339.167,306.833 339.5,307.5C 338.884,308.202 338.884,309.202 339.5,310.5C 337.549,310.773 336.049,310.107 335,308.5C 334.667,310.167 334.333,311.833 334,313.5C 331.852,311.121 332.018,308.955 334.5,307C 334.043,306.586 333.709,306.086 333.5,305.5C 334.718,305.26 335.718,305.26 336.5,305.5 Z"/></g>
<g><path style="opacity:1" fill="#fbd2d2" d="M 618.5,305.5 C 619.756,305.461 620.756,305.961 621.5,307C 619.671,307.273 618.171,308.107 617,309.5C 616.308,308.975 615.808,308.308 615.5,307.5C 616.602,306.824 617.602,306.158 618.5,305.5 Z"/></g>
<g><path style="opacity:1" fill="#fbcaca" d="M 151.5,306.5 C 152.586,306.62 153.253,307.287 153.5,308.5C 154.228,310.155 154.395,311.821 154,313.5C 152.589,311.35 151.755,309.016 151.5,306.5 Z"/></g>
<g><path style="opacity:1" fill="#fad9d9" d="M 632.5,305.5 C 633.688,307.496 633.021,308.329 630.5,308C 631.381,307.292 632.047,306.458 632.5,305.5 Z"/></g>
<g><path style="opacity:1" fill="#fdc3c1" d="M 631.5,298.5 C 635.336,296.841 637.502,298.175 638,302.5C 639.113,301.289 640.28,301.289 641.5,302.5C 642.59,304.791 643.09,307.124 643,309.5C 642.085,308.672 641.419,307.672 641,306.5C 640.311,307.357 639.478,308.023 638.5,308.5C 637.465,304.108 635.131,300.775 631.5,298.5 Z"/></g>
<g><path style="opacity:1" fill="#fcc5c5" d="M 324.5,305.5 C 325.339,306.641 326.006,307.974 326.5,309.5C 326.167,310.5 325.5,311.167 324.5,311.5C 324.254,309.78 324.254,307.78 324.5,305.5 Z"/></g>
<g><path style="opacity:1" fill="#fae4e3" d="M 436.5,307.5 C 439.6,308.009 440.434,309.342 439,311.5C 436.865,310.873 434.698,310.373 432.5,310C 434.437,309.878 435.77,309.045 436.5,307.5 Z"/></g>
<g><path style="opacity:1" fill="#fe706f" d="M 562.5,306.5 C 563.458,306.953 564.292,307.619 565,308.5C 569.574,318.878 567.741,327.878 559.5,335.5C 558.692,335.192 558.025,334.692 557.5,334C 564.568,325.84 566.234,316.674 562.5,306.5 Z"/></g>
<g><path style="opacity:1" fill="#fbc6c5" d="M 92.5,306.5 C 94.0878,307.635 94.4212,308.969 93.5,310.5C 92.5713,309.311 92.238,307.978 92.5,306.5 Z"/></g>
<g><path style="opacity:1" fill="#fae0df" d="M 544.5,324.5 C 543.909,323.849 543.243,323.182 542.5,322.5C 543.977,318.115 542.477,315.115 538,313.5C 536.831,314.009 535.998,314.842 535.5,316C 537.974,316.113 539.974,317.113 541.5,319C 538.843,319.175 536.176,319.008 533.5,318.5C 534.526,315.462 534.692,312.462 534,309.5C 534.739,310.574 535.739,311.241 537,311.5C 538.371,310.419 539.871,309.585 541.5,309C 540.167,308.333 538.833,307.667 537.5,307C 538.833,306.333 538.833,305.667 537.5,305C 535.623,304.424 533.789,304.591 532,305.5C 530.941,305.37 530.108,304.87 529.5,304C 530.833,303.667 532.167,303.333 533.5,303C 529.369,300.552 529.535,298.385 534,296.5C 535.154,297.743 536.488,298.743 538,299.5C 537.689,300.935 537.855,302.268 538.5,303.5C 540.821,304.966 542.821,306.799 544.5,309C 545.793,309.49 547.127,309.657 548.5,309.5C 548.297,307.61 548.963,306.11 550.5,305C 548.953,304.667 547.62,305.167 546.5,306.5C 545.241,303.997 543.908,301.497 542.5,299C 542.667,298.5 542.833,298 543,297.5C 544.333,298.167 545.333,299.167 546,300.5C 547.587,299.273 548.921,299.606 550,301.5C 550.423,300.044 551.256,299.544 552.5,300C 554.028,302.917 555.361,305.917 556.5,309C 555.451,309.492 554.451,309.326 553.5,308.5C 550.898,309.747 548.398,311.081 546,312.5C 545.667,312.167 545.333,311.833 545,311.5C 544.716,313.886 543.716,314.552 542,313.5C 543.184,315.922 545.018,318.089 547.5,320C 544.388,320.851 544.054,322.017 546.5,323.5C 546.043,324.298 545.376,324.631 544.5,324.5 Z"/></g>
<g><path style="opacity:1" fill="#fbcbcb" d="M 594.5,311.5 C 595.469,310.691 596.302,309.691 597,308.5C 598.713,310.821 597.88,311.821 594.5,311.5 Z"/></g>
<g><path style="opacity:1" fill="#fbcbca" d="M 329.5,311.5 C 326.397,312.797 326.063,312.464 328.5,310.5C 329.107,310.624 329.44,310.957 329.5,311.5 Z"/></g>
<g><path style="opacity:1" fill="#fae3e3" d="M 339.5,307.5 C 340.167,312.367 340.167,313.367 339.5,310.5C 338.884,309.202 338.884,308.202 339.5,307.5 Z"/></g>
<g><path style="opacity:1" fill="#fadcdb" d="M 594.5,311.5 C 594.539,312.756 594.039,313.756 593,314.5C 592.333,313.167 592.333,311.833 593,310.5C 593.383,311.056 593.883,311.389 594.5,311.5 Z"/></g>
<g><path style="opacity:1" fill="#fdbdbc" d="M 429.5,310.5 C 430.858,312.801 432.691,314.801 435,316.5C 435.688,317.332 435.521,317.998 434.5,318.5C 433.449,317.115 432.116,316.115 430.5,315.5C 429.548,313.955 429.215,312.288 429.5,310.5 Z"/></g>
<g><path style="opacity:1" fill="#fcc4c3" d="M 204.5,311.5 C 206.446,312.254 207.279,313.588 207,315.5C 204.236,314.975 203.402,313.642 204.5,311.5 Z"/></g>
<g><path style="opacity:1" fill="#f9f0ef" d="M 515.5,313.5 C 519.514,313.334 523.514,313.501 527.5,314C 529.72,317.101 530.053,320.435 528.5,324C 524.179,324.499 519.846,324.666 515.5,324.5C 515.5,320.833 515.5,317.167 515.5,313.5 Z"/></g>
<g><path style="opacity:1" fill="#f9eaea" d="M 447.5,309.5 C 448.634,311.966 448.801,314.633 448,317.5C 446.39,314.872 446.223,312.205 447.5,309.5 Z"/></g>
<g><path style="opacity:1" fill="#fe706f" d="M 606.5,315.5 C 610.182,315.335 613.848,315.501 617.5,316C 618.167,316.667 618.833,317.333 619.5,318C 615.469,318.072 611.636,318.906 608,320.5C 605.389,319.5 604.889,317.833 606.5,315.5 Z"/></g>
<g><path style="opacity:1" fill="#fadada" d="M 114.5,315.5 C 115.713,316.497 115.546,317.497 114,318.5C 113.53,317.423 113.697,316.423 114.5,315.5 Z"/></g>
<g><path style="opacity:1" fill="#fbd5d5" d="M 329.5,311.5 C 331.176,312.183 331.843,313.517 331.5,315.5C 329.645,315.272 328.812,315.939 329,317.5C 331.394,319.086 333.561,320.752 335.5,322.5C 327.959,321.749 325.959,318.082 329.5,311.5 Z"/></g>
<g><path style="opacity:1" fill="#fad1d1" d="M 338.5,315.5 C 341.797,315.329 342.131,315.995 339.5,317.5C 338.702,317.043 338.369,316.376 338.5,315.5 Z"/></g>
<g><path style="opacity:1" fill="#ff706f" d="M 519.5,316.5 C 522.482,316.104 525.149,316.771 527.5,318.5C 524.374,318.984 521.707,320.317 519.5,322.5C 516.839,320.514 516.839,318.514 519.5,316.5 Z"/></g>
<g><path style="opacity:1" fill="#fadbdb" d="M 587.5,315.5 C 589.337,315.639 589.67,316.306 588.5,317.5C 587.702,317.043 587.369,316.376 587.5,315.5 Z"/></g>
<g><path style="opacity:1" fill="#f9efef" d="M 593.5,315.5 C 594.675,315.281 595.675,315.614 596.5,316.5C 595.273,317.59 594.44,318.924 594,320.5C 592.964,318.701 592.797,317.034 593.5,315.5 Z"/></g>
<g><path style="opacity:1" fill="#fae4e3" d="M 202.5,316.5 C 204.831,316.498 206.831,317.331 208.5,319C 207.833,319.333 207.167,319.667 206.5,320C 207.711,320.893 207.711,321.726 206.5,322.5C 205.029,321.619 204.196,320.286 204,318.5C 203.308,319.025 202.808,319.692 202.5,320.5C 203.428,321.768 203.595,323.101 203,324.5C 202.102,322.374 200.935,320.374 199.5,318.5C 200.602,317.824 201.602,317.158 202.5,316.5 Z"/></g>
<g><path style="opacity:1" fill="#fcbbba" d="M 508.5,317.5 C 510.268,316.493 511.601,317.159 512.5,319.5C 511.675,320.386 510.675,320.719 509.5,320.5C 509.737,319.209 509.404,318.209 508.5,317.5 Z"/></g>
<g><path style="opacity:1" fill="#fbd6d6" d="M 549.5,316.5 C 551.983,316.73 552.483,317.397 551,318.5C 549.97,318.164 549.47,317.497 549.5,316.5 Z"/></g>
<g><path style="opacity:1" fill="#fcc2c1" d="M 97.5,316.5 C 99.3925,317.702 101.226,319.035 103,320.5C 103.667,321.167 103.667,321.833 103,322.5C 100.273,321.241 98.4394,319.241 97.5,316.5 Z"/></g>
<g><path style="opacity:1" fill="#fbcaca" d="M 151.5,319.5 C 153.852,320.543 154.019,321.876 152,323.5C 150.666,322.122 150.499,320.789 151.5,319.5 Z"/></g>
<g><path style="opacity:1" fill="#fad0d0" d="M 438.5,319.5 C 444.882,319.772 445.048,320.772 439,322.5C 438.517,321.552 438.351,320.552 438.5,319.5 Z"/></g>
<g><path style="opacity:1" fill="#f8efef" d="M 111.5,323.5 C 112.601,322.402 113.934,322.235 115.5,323C 114.318,324.768 112.985,324.935 111.5,323.5 Z"/></g>
<g><path style="opacity:1" fill="#fae3e3" d="M 118.5,322.5 C 119.5,322.5 120.5,322.5 121.5,322.5C 121.451,328.831 120.451,328.831 118.5,322.5 Z"/></g>
<g><path style="opacity:1" fill="#fbcbcb" d="M 429.5,318.5 C 433.403,319.462 433.403,320.629 429.5,322C 430.96,322.811 431.293,323.645 430.5,324.5C 427.001,322.88 426.668,320.88 429.5,318.5 Z"/></g>
<g><path style="opacity:1" fill="#fbd5d5" d="M 205.5,323.5 C 207.942,323.119 208.609,323.786 207.5,325.5C 210.413,327.901 210.079,329.234 206.5,329.5C 206.483,327.435 206.15,325.435 205.5,323.5 Z"/></g>
<g><path style="opacity:1" fill="#fdafae" d="M 335.5,322.5 C 336.788,324.035 336.788,325.701 335.5,327.5C 334.566,325.905 334.566,324.239 335.5,322.5 Z"/></g>
<g><path style="opacity:1" fill="#fbcdcd" d="M 544.5,324.5 C 545.686,325.961 545.686,327.295 544.5,328.5C 544.586,327.504 544.252,326.671 543.5,326C 542.062,325.781 540.729,325.281 539.5,324.5C 540.887,324.193 542.554,324.193 544.5,324.5 Z"/></g>
<g><path style="opacity:1" fill="#fcbebd" d="M 593.5,322.5 C 594.552,322.351 595.552,322.517 596.5,323C 591.387,324.731 591.387,326.064 596.5,327C 593.945,328.747 591.945,328.081 590.5,325C 591.571,324.148 592.571,323.315 593.5,322.5 Z"/></g>
<g><path style="opacity:1" fill="#fbc2c1" d="M 503.5,324.5 C 508.662,326.729 508.329,327.395 502.5,326.5C 502.863,325.817 503.196,325.15 503.5,324.5 Z"/></g>
<g><path style="opacity:1" fill="#f8f4f4" d="M 534.5,329.5 C 534.461,328.244 534.961,327.244 536,326.5C 536.585,327.998 536.085,328.998 534.5,329.5 Z"/></g>
<g><path style="opacity:1" fill="#fda8a6" d="M 198.5,327.5 C 206.384,328.387 206.384,329.387 198.5,330.5C 197.438,329.575 197.438,328.575 198.5,327.5 Z"/></g>
<g><path style="opacity:1" fill="#fcb1b0" d="M 146.5,322.5 C 147.774,323.189 147.774,324.023 146.5,325C 147.167,325.333 147.833,325.667 148.5,326C 147.299,326.903 146.465,328.069 146,329.5C 144.513,328.845 143.347,327.845 142.5,326.5C 142.938,325.494 143.604,325.494 144.5,326.5C 145.362,325.234 146.029,323.901 146.5,322.5 Z"/></g>
<g><path style="opacity:1" fill="#fcc5c4" d="M 441.5,325.5 C 444.534,325.609 445.534,326.943 444.5,329.5C 443.066,328.412 442.066,327.078 441.5,325.5 Z"/></g>
<g><path style="opacity:1" fill="#fae2e2" d="M 544.5,328.5 C 543.86,330.332 542.86,330.665 541.5,329.5C 542.325,328.614 543.325,328.281 544.5,328.5 Z"/></g>
<g><path style="opacity:1" fill="#fae9e8" d="M 430.5,329.5 C 431.496,329.414 432.329,329.748 433,330.5C 434.565,336.166 436.065,341.832 437.5,347.5C 433.833,347.5 430.167,347.5 426.5,347.5C 426.89,341.274 428.224,335.274 430.5,329.5 Z"/></g>
<g><path style="opacity:1" fill="#fbcfcf" d="M 454.5,331.5 C 455.497,330.287 456.497,330.454 457.5,332C 456.423,332.47 455.423,332.303 454.5,331.5 Z"/></g>
<g><path style="opacity:1" fill="#fae4e4" d="M 534.5,329.5 C 534.762,330.978 534.429,332.311 533.5,333.5C 532.579,331.969 532.912,330.635 534.5,329.5 Z"/></g>
<g><path style="opacity:1" fill="#ff6e6d" d="M 249.5,330.5 C 251.411,330.574 252.578,331.574 253,333.5C 253.667,339.5 253.667,345.5 253,351.5C 251.833,352.667 250.667,353.833 249.5,355C 239.151,355.832 228.817,355.666 218.5,354.5C 227.816,353.668 237.149,353.168 246.5,353C 247.333,352.167 248.167,351.333 249,350.5C 249.5,343.842 249.666,337.175 249.5,330.5 Z"/></g>
<g><path style="opacity:1" fill="#fadada" d="M 120.5,328.5 C 122.285,328.926 123.285,330.092 123.5,332C 122.429,334.424 121.429,336.924 120.5,339.5C 120.167,339.167 119.833,338.833 119.5,338.5C 120.189,336.556 120.689,334.556 121,332.5C 121.654,333.696 122.154,333.696 122.5,332.5C 121.37,331.378 120.703,330.044 120.5,328.5 Z"/></g>
<g><path style="opacity:1" fill="#fad3d3" d="M 144.5,335.5 C 144.5,333.833 144.5,332.167 144.5,330.5C 148.099,330.262 148.433,331.262 145.5,333.5C 148.081,335.91 147.748,336.576 144.5,335.5 Z"/></g>
<g><path style="opacity:1" fill="#f9e6e6" d="M 204.5,330.5 C 205.82,331.942 207.486,332.608 209.5,332.5C 209.785,334.288 209.452,335.955 208.5,337.5C 207.12,335.138 205.787,332.805 204.5,330.5 Z"/></g>
<g><path style="opacity:1" fill="#fad8d8" d="M 520.5,330.5 C 521.675,330.281 522.675,330.614 523.5,331.5C 521.862,332.958 520.195,333.292 518.5,332.5C 519.243,331.818 519.909,331.151 520.5,330.5 Z"/></g>
<g><path style="opacity:1" fill="#f9e8e8" d="M 140.5,332.5 C 141.376,332.369 142.043,332.702 142.5,333.5C 140.192,334.873 139.525,334.54 140.5,332.5 Z"/></g>
<g><path style="opacity:1" fill="#fbd1d1" d="M 527.5,331.5 C 529.273,332.314 529.773,333.648 529,335.5C 527.812,334.437 527.312,333.103 527.5,331.5 Z"/></g>
<g><path style="opacity:1" fill="#f9e5e5" d="M 213.5,333.5 C 216.012,334.216 216.012,335.216 213.5,336.5C 212.913,335.767 212.913,334.767 213.5,333.5 Z"/></g>
<g><path style="opacity:1" fill="#ff6868" d="M 264.5,335.5 C 278.183,335.167 291.85,335.501 305.5,336.5C 306.633,344.117 306.8,351.784 306,359.5C 304.933,360.191 303.766,360.691 302.5,361C 290.167,361.667 277.833,361.667 265.5,361C 264.667,360.167 263.833,359.333 263,358.5C 262.333,351.5 262.333,344.5 263,337.5C 263.717,336.956 264.217,336.289 264.5,335.5 Z"/></g>
<g><path style="opacity:1" fill="#f9dedd" d="M 440.5,334.5 C 441.756,334.461 442.756,334.961 443.5,336C 442.151,336.772 441.318,337.939 441,339.5C 440.506,337.866 440.34,336.199 440.5,334.5 Z"/></g>
<g><path style="opacity:1" fill="#fdc6c5" d="M 453.5,334.5 C 457.339,334.612 457.339,335.279 453.5,336.5C 452.537,336.03 452.537,335.363 453.5,334.5 Z"/></g>
<g><path style="opacity:1" fill="#fdbcbb" d="M 490.5,333.5 C 491.334,335.263 490.834,336.93 489,338.5C 488.387,336.505 488.887,334.838 490.5,333.5 Z"/></g>
<g><path style="opacity:1" fill="#fad8d7" d="M 512.5,332.5 C 515.428,333.637 515.762,334.97 513.5,336.5C 512.571,335.311 512.238,333.978 512.5,332.5 Z"/></g>
<g><path style="opacity:1" fill="#fae4e3" d="M 144.5,335.5 C 144.25,336.922 143.417,337.922 142,338.5C 141.481,336.511 142.314,335.511 144.5,335.5 Z"/></g>
<g><path style="opacity:1" fill="#ff7674" d="M 430.5,337.5 C 432.369,339.635 433.036,342.302 432.5,345.5C 431.5,345.5 430.5,345.5 429.5,345.5C 429.575,342.794 429.908,340.127 430.5,337.5 Z"/></g>
<g><path style="opacity:1" fill="#f9e2e2" d="M 636.5,338.5 C 638.225,338.843 638.725,339.843 638,341.5C 636.961,340.756 636.461,339.756 636.5,338.5 Z"/></g>
<g><path style="opacity:1" fill="#fdaead" d="M 217.5,336.5 C 219.476,337.427 219.809,338.76 218.5,340.5C 216.678,339.571 215.345,340.238 214.5,342.5C 213.417,341.635 213.251,340.635 214,339.5C 215.729,339.026 216.895,338.026 217.5,336.5 Z"/></g>
<g><path style="opacity:1" fill="#ffa8a6" d="M 625.5,338.5 C 626.649,338.791 627.316,339.624 627.5,341C 627.045,342.724 626.212,344.224 625,345.5C 624.5,345 624,344.5 623.5,344C 624.464,342.275 625.131,340.441 625.5,338.5 Z"/></g>
<g><path style="opacity:1" fill="#fadcdc" d="M 498.5,336.5 C 499.239,336.369 499.906,336.536 500.5,337C 500.455,339.636 500.288,342.47 500,345.5C 498.851,342.607 498.351,339.607 498.5,336.5 Z"/></g>
<g><path style="opacity:1" fill="#fadfdf" d="M 494.5,341.5 C 497.041,342.623 497.041,343.956 494.5,345.5C 493.692,345.192 493.025,344.692 492.5,344C 493.756,343.583 494.423,342.75 494.5,341.5 Z"/></g>
<g><path style="opacity:1" fill="#ff6666" d="M 309.5,342.5 C 310.496,342.414 311.329,342.748 312,343.5C 312.667,350.5 312.667,357.5 312,364.5C 311.612,365.428 310.945,366.095 310,366.5C 297.2,367.638 284.367,367.805 271.5,367C 270.692,366.692 270.025,366.192 269.5,365.5C 281.82,364.667 294.153,364.167 306.5,364C 307.333,363.167 308.167,362.333 309,361.5C 309.5,355.175 309.666,348.842 309.5,342.5 Z"/></g>
<g><path style="opacity:1" fill="#fae3e2" d="M 200.5,351.5 C 202.69,350.252 203.023,348.586 201.5,346.5C 200.391,346.443 199.391,346.11 198.5,345.5C 197.735,344.34 196.735,343.34 195.5,342.5C 194.77,343.934 193.77,345.1 192.5,346C 193.784,347.297 193.617,348.464 192,349.5C 192.166,343.666 192.166,338 192,332.5C 192.249,335.177 193.249,337.51 195,339.5C 197.646,336.581 200.813,335.581 204.5,336.5C 202.022,338.436 202.022,340.436 204.5,342.5C 205.59,341.609 205.59,340.609 204.5,339.5C 205.365,338.417 206.365,338.251 207.5,339C 206.289,340.113 206.289,341.28 207.5,342.5C 205.318,343.823 204.651,345.49 205.5,347.5C 207.395,346.027 209.061,344.36 210.5,342.5C 211.113,343.98 211.446,345.313 211.5,346.5C 213.191,344.744 215.191,344.244 217.5,345C 216.437,346.188 215.103,346.688 213.5,346.5C 213.5,347.5 213.5,348.5 213.5,349.5C 208.331,347.445 204.331,348.778 201.5,353.5C 200.702,353.043 200.369,352.376 200.5,351.5 Z"/></g>
<g><path style="opacity:1" fill="#fe7574" d="M 201.5,346.5 C 197.649,340.422 198.315,340.089 203.5,345.5C 203.043,346.298 202.376,346.631 201.5,346.5 Z"/></g>
<g><path style="opacity:1" fill="#ff9491" d="M 198.5,345.5 C 199.391,346.11 200.391,346.443 201.5,346.5C 203.023,348.586 202.69,350.252 200.5,351.5C 198.983,351.489 197.816,350.823 197,349.5C 196.163,351.007 194.996,351.507 193.5,351C 194.617,349.108 196.284,348.275 198.5,348.5C 198.5,347.5 198.5,346.5 198.5,345.5 Z"/></g>
<g><path style="opacity:1" fill="#fbd6d5" d="M 293.5,348.5 C 295.035,347.212 296.701,347.212 298.5,348.5C 297.052,349.354 295.719,350.354 294.5,351.5C 294.407,350.528 294.074,349.528 293.5,348.5 Z"/></g>
<g><path style="opacity:1" fill="#fae3e2" d="M 502.5,341.5 C 503.181,343.158 504.015,344.825 505,346.5C 505.249,345.376 505.749,344.376 506.5,343.5C 507.331,345.473 507.498,347.473 507,349.5C 507.956,348.421 508.789,347.255 509.5,346C 510.5,345.333 511.5,345.333 512.5,346C 510.561,346.908 509.561,348.408 509.5,350.5C 505.935,351.466 502.435,351.466 499,350.5C 498.333,349.833 498.333,349.167 499,348.5C 500.726,349.576 502.559,349.743 504.5,349C 503.5,348.167 502.5,347.333 501.5,346.5C 502.309,344.929 502.643,343.262 502.5,341.5 Z"/></g>
<g><path style="opacity:1" fill="#ff716f" d="M 654.5,345.5 C 657.215,347.764 658.715,350.764 659,354.5C 660.875,372.289 653.375,384.122 636.5,390C 619.278,395.56 602.611,394.393 586.5,386.5C 586.833,386.167 587.167,385.833 587.5,385.5C 591.23,387.576 595.23,388.743 599.5,389C 614.559,391.123 628.893,389.123 642.5,383C 655.286,373.535 659.286,361.035 654.5,345.5 Z"/></g>
<g><path style="opacity:1" fill="#fadbdb" d="M 401.5,348.5 C 403.975,348.747 403.975,349.413 401.5,350.5C 400.537,350.03 400.537,349.363 401.5,348.5 Z"/></g>
<g><path style="opacity:1" fill="#fae8e8" d="M 515.5,348.5 C 520.93,348.161 526.264,348.661 531.5,350C 534.55,354.415 533.883,358.082 529.5,361C 524.845,361.499 520.179,361.666 515.5,361.5C 515.5,357.167 515.5,352.833 515.5,348.5 Z"/></g>
<g><path style="opacity:1" fill="#f9dfdf" d="M 445.5,349.5 C 446.376,349.369 447.043,349.702 447.5,350.5C 445.192,351.873 444.525,351.54 445.5,349.5 Z"/></g>
<g><path style="opacity:1" fill="#fbdada" d="M 209.5,350.5 C 210.995,350.415 211.995,351.081 212.5,352.5C 210.604,353.639 209.604,352.973 209.5,350.5 Z"/></g>
<g><path style="opacity:1" fill="#fad7d7" d="M 404.5,352.5 C 405.946,351.387 407.613,351.22 409.5,352C 407.861,353.519 406.194,353.686 404.5,352.5 Z"/></g>
<g><path style="opacity:1" fill="#fad8d7" d="M 419.5,350.5 C 420.922,350.75 421.922,351.583 422.5,353C 420.511,353.519 419.511,352.686 419.5,350.5 Z"/></g>
<g><path style="opacity:1" fill="#ff7776" d="M 588.5,348.5 C 598.367,351.132 608.367,353.466 618.5,355.5C 617.652,356.991 616.319,357.658 614.5,357.5C 606.019,356.284 597.852,353.951 590,350.5C 588.97,350.164 588.47,349.497 588.5,348.5 Z"/></g>
<g><path style="opacity:1" fill="#fcc5c4" d="M 296.5,351.5 C 297.525,351.897 297.692,352.563 297,353.5C 294.516,356.259 293.35,355.926 293.5,352.5C 294.791,352.737 295.791,352.404 296.5,351.5 Z"/></g>
<g><path style="opacity:1" fill="#fbdfde" d="M 438.5,351.5 C 441.824,352.11 442.324,353.777 440,356.5C 438.991,354.975 438.491,353.308 438.5,351.5 Z"/></g>
<g><path style="opacity:1" fill="#fe7473" d="M 519.5,351.5 C 523.394,351.11 527.06,351.777 530.5,353.5C 526.586,354.772 522.753,356.438 519,358.5C 517.03,356.037 517.196,353.703 519.5,351.5 Z"/></g>
<g><path style="opacity:1" fill="#fad5d4" d="M 645.5,351.5 C 647.337,351.639 647.67,352.306 646.5,353.5C 645.702,353.043 645.369,352.376 645.5,351.5 Z"/></g>
<g><path style="opacity:1" fill="#fcc1c0" d="M 198.5,354.5 C 197.685,355.429 196.852,356.429 196,357.5C 194.179,355.315 194.512,353.315 197,351.5C 198.039,352.244 198.539,353.244 198.5,354.5 Z"/></g>
<g><path style="opacity:1" fill="#fadfde" d="M 432.5,351.5 C 435.113,352.095 435.113,352.929 432.5,354C 434.883,355.197 434.55,356.03 431.5,356.5C 430.833,356.167 430.167,355.833 429.5,355.5C 430.524,354.148 431.524,352.815 432.5,351.5 Z"/></g>
<g><path style="opacity:1" fill="#fae5e4" d="M 509.5,351.5 C 510.451,352.919 510.784,354.585 510.5,356.5C 507.05,357.244 505.384,355.91 505.5,352.5C 507.099,352.768 508.432,352.434 509.5,351.5 Z"/></g>
<g><path style="opacity:1" fill="#fad3d2" d="M 198.5,354.5 C 199.756,354.461 200.756,354.961 201.5,356C 200.002,356.585 199.002,356.085 198.5,354.5 Z"/></g>
<g><path style="opacity:1" fill="#fadbdb" d="M 502.5,356.5 C 503.5,356.5 504.5,356.5 505.5,356.5C 505.193,359.962 504.193,359.962 502.5,356.5 Z"/></g>
<g><path style="opacity:1" fill="#fadede" d="M 203.5,355.5 C 204.849,354.203 206.182,354.37 207.5,356C 206.44,357.298 205.274,358.465 204,359.5C 203.5,359.333 203,359.167 202.5,359C 204.311,357.959 204.645,356.793 203.5,355.5 Z"/></g>
<g><path style="opacity:1" fill="#fbb8b7" d="M 215.5,356.5 C 227.598,357.148 239.598,357.814 251.5,358.5C 239.12,359.146 227.12,358.479 215.5,356.5 Z"/></g>
<g><path style="opacity:1" fill="#fadcdc" d="M 494.5,358.5 C 495.043,358.56 495.376,358.893 495.5,359.5C 494.277,360.614 492.944,360.781 491.5,360C 492.737,359.768 493.737,359.268 494.5,358.5 Z"/></g>
<g><path style="opacity:1" fill="#fad5d4" d="M 547.5,361.5 C 548.94,363.42 548.607,365.087 546.5,366.5C 545.799,364.808 546.133,363.142 547.5,361.5 Z"/></g>
<g><path style="opacity:1" fill="#fcc2c1" d="M 200.5,363.5 C 201.833,363.5 203.167,363.5 204.5,363.5C 204.649,364.552 204.483,365.552 204,366.5C 202.601,365.773 201.101,365.273 199.5,365C 200.056,364.617 200.389,364.117 200.5,363.5 Z"/></g>
<g><path style="opacity:1" fill="#f9dfdf" d="M 361.5,362.5 C 363.332,363.14 363.665,364.14 362.5,365.5C 361.614,364.675 361.281,363.675 361.5,362.5 Z"/></g>
<g><path style="opacity:1" fill="#fae3e3" d="M 494.5,363.5 C 495.376,363.369 496.043,363.702 496.5,364.5C 494.192,365.873 493.525,365.54 494.5,363.5 Z"/></g>
<g><path style="opacity:1" fill="#fad8d8" d="M 534.5,363.5 C 535.75,363.577 536.583,364.244 537,365.5C 540.312,364.545 540.312,364.879 537,366.5C 535.251,366.252 534.418,365.252 534.5,363.5 Z"/></g>
<g><path style="opacity:1" fill="#feb1b0" d="M 551.5,361.5 C 552.376,361.369 553.043,361.702 553.5,362.5C 552.985,364.225 552.318,365.892 551.5,367.5C 551.07,365.62 551.07,363.62 551.5,361.5 Z"/></g>
<g><path style="opacity:1" fill="#fac9c9" d="M 641.5,363.5 C 642.249,364.531 642.915,365.698 643.5,367C 643.167,367.167 642.833,367.333 642.5,367.5C 641.571,366.311 641.238,364.978 641.5,363.5 Z"/></g>
<g><path style="opacity:1" fill="#fe7372" d="M 258.5,365.5 C 259.496,365.414 260.329,365.748 261,366.5C 261.667,373.167 261.667,379.833 261,386.5C 260.215,388.286 259.049,389.786 257.5,391C 235.833,391.667 214.167,391.667 192.5,391C 191.663,389.989 191.33,388.822 191.5,387.5C 213.169,387.667 234.836,387.5 256.5,387C 257.126,386.25 257.626,385.416 258,384.5C 258.5,378.175 258.666,371.842 258.5,365.5 Z"/></g>
<g><path style="opacity:1" fill="#fadbdb" d="M 195.5,367.5 C 196.975,368.262 198.309,368.595 199.5,368.5C 197.907,370.66 196.24,370.827 194.5,369C 195.056,368.617 195.389,368.117 195.5,367.5 Z"/></g>
<g><path style="opacity:1" fill="#fad8d8" d="M 370.5,366.5 C 373.041,367.623 373.041,368.956 370.5,370.5C 370.094,369.443 370.094,368.109 370.5,366.5 Z"/></g>
<g><path style="opacity:1" fill="#fbcbca" d="M 543.5,367.5 C 545.975,367.747 545.975,368.413 543.5,369.5C 542.537,369.03 542.537,368.363 543.5,367.5 Z"/></g>
<g><path style="opacity:1" fill="#fdb8b7" d="M 377.5,366.5 C 379.912,366.694 380.912,368.027 380.5,370.5C 379.448,370.649 378.448,370.483 377.5,370C 378.171,369.014 378.171,367.847 377.5,366.5 Z"/></g>
<g><path style="opacity:1" fill="#fcc7c7" d="M 531.5,370.5 C 533.288,370.215 534.955,370.548 536.5,371.5C 535.667,371.833 534.833,372.167 534,372.5C 532.624,372.316 531.791,371.649 531.5,370.5 Z"/></g>
<g><path style="opacity:1" fill="#fac3c3" d="M 540.5,370.5 C 542.973,370.947 543.14,371.947 541,373.5C 540.517,372.552 540.351,371.552 540.5,370.5 Z"/></g>
<g><path style="opacity:1" fill="#fadada" d="M 546.5,369.5 C 547.239,369.369 547.906,369.536 548.5,370C 547.95,371.845 546.95,373.345 545.5,374.5C 545.167,374.333 544.833,374.167 544.5,374C 545.267,372.53 545.933,371.03 546.5,369.5 Z"/></g>
<g><path style="opacity:1" fill="#facaca" d="M 603.5,370.5 C 605.337,370.639 605.67,371.306 604.5,372.5C 603.702,372.043 603.369,371.376 603.5,370.5 Z"/></g>
<g><path style="opacity:1" fill="#fbd1d1" d="M 226.5,374.5 C 227.189,373.226 228.023,373.226 229,374.5C 229.749,375.635 229.583,376.635 228.5,377.5C 227.824,376.398 227.158,375.398 226.5,374.5 Z"/></g>
<g><path style="opacity:1" fill="#f9eaea" d="M 375.5,370.5 C 376.325,372.125 375.992,373.792 374.5,375.5C 373.799,373.808 374.133,372.142 375.5,370.5 Z"/></g>
<g><path style="opacity:1" fill="#f9e1e1" d="M 548.5,373.5 C 552.133,373.443 552.3,374.443 549,376.5C 548.517,375.552 548.351,374.552 548.5,373.5 Z"/></g>
<g><path style="opacity:1" fill="#fac2c2" d="M 202.5,374.5 C 204.337,374.639 204.67,375.306 203.5,376.5C 202.702,376.043 202.369,375.376 202.5,374.5 Z"/></g>
<g><path style="opacity:1" fill="#fe7473" d="M 422.5,374.5 C 428.833,374.5 435.167,374.5 441.5,374.5C 441.67,375.822 441.337,376.989 440.5,378C 435.167,378.333 429.833,378.667 424.5,379C 422.965,381.624 421.798,384.457 421,387.5C 419.421,389.041 417.587,390.208 415.5,391C 407.507,391.5 399.507,391.666 391.5,391.5C 391.33,390.178 391.663,389.011 392.5,388C 400.167,387.667 407.833,387.333 415.5,387C 416.667,385.833 417.833,384.667 419,383.5C 419.72,380.249 420.887,377.249 422.5,374.5 Z"/></g>
<g><path style="opacity:1" fill="#fdabaa" d="M 508.5,375.5 C 510.318,375.194 512.318,375.194 514.5,375.5C 512.217,377.733 510.217,377.733 508.5,375.5 Z"/></g>
<g><path style="opacity:1" fill="#f9dede" d="M 361.5,378.5 C 363.337,378.639 363.67,379.306 362.5,380.5C 361.702,380.043 361.369,379.376 361.5,378.5 Z"/></g>
<g><path style="opacity:1" fill="#fbb2b2" d="M 536.5,384.5 C 519.931,385.18 503.265,385.847 486.5,386.5C 502.8,384.515 519.466,383.848 536.5,384.5 Z"/></g>
<g><path style="opacity:1" fill="#5e5e5e" d="M 352.5,437.5 C 353.167,441.833 353.833,446.167 354.5,450.5C 354.5,450.833 354.5,451.167 354.5,451.5C 353.833,453.5 353.167,455.5 352.5,457.5C 352.5,450.833 352.5,444.167 352.5,437.5 Z"/></g>
<g><path style="opacity:1" fill="#252525" d="M 248.5,446.5 C 250.631,447.314 252.964,447.814 255.5,448C 252.964,448.186 250.631,448.686 248.5,449.5C 248.5,452.167 248.5,454.833 248.5,457.5C 247.5,457.5 246.5,457.5 245.5,457.5C 245.5,450.833 245.5,444.167 245.5,437.5C 249.555,437.176 253.555,437.509 257.5,438.5C 254.572,439.484 251.572,439.817 248.5,439.5C 248.5,441.833 248.5,444.167 248.5,446.5 Z"/></g>
<g><path style="opacity:1" fill="#2c2c2c" d="M 274.5,437.5 C 275.5,437.5 276.5,437.5 277.5,437.5C 277.5,443.5 277.5,449.5 277.5,455.5C 281.276,455.469 281.443,456.136 278,457.5C 276.739,457.241 275.739,456.574 275,455.5C 274.501,449.509 274.334,443.509 274.5,437.5 Z"/></g>
<g><path style="opacity:1" fill="#171717" d="M 283.5,437.5 C 285.453,443.074 286.12,449.074 285.5,455.5C 289.276,455.469 289.443,456.136 286,457.5C 285.228,457.355 284.561,457.022 284,456.5C 283.5,450.175 283.334,443.842 283.5,437.5 Z"/></g>
<g><path style="opacity:1" fill="#242424" d="M 352.5,437.5 C 352.5,444.167 352.5,450.833 352.5,457.5C 351.18,454.572 350.514,451.239 350.5,447.5C 350.514,443.761 351.18,440.428 352.5,437.5 Z"/></g>
<g><path style="opacity:1" fill="#161616" d="M 372.5,437.5 C 377.08,437.113 381.414,437.947 385.5,440C 390.346,447.051 389.013,452.717 381.5,457C 378.518,457.498 375.518,457.665 372.5,457.5C 372.5,450.833 372.5,444.167 372.5,437.5 Z"/></g>
<g><path style="opacity:1" fill="#070707" d="M 433.5,437.5 C 435.453,443.074 436.12,449.074 435.5,455.5C 436.675,455.281 437.675,455.614 438.5,456.5C 436.994,457.747 435.494,457.747 434,456.5C 433.5,450.175 433.334,443.842 433.5,437.5 Z"/></g>
<g><path style="opacity:1" fill="#ededed" d="M 374.5,439.5 C 385.668,439.811 388.334,444.645 382.5,454C 379.937,455.079 377.271,455.579 374.5,455.5C 374.5,450.167 374.5,444.833 374.5,439.5 Z"/></g>
<g><path style="opacity:1" fill="#2a2a2a" d="M 313.5,441.5 C 314.5,441.5 315.5,441.5 316.5,441.5C 316.5,442.5 316.5,443.5 316.5,444.5C 321.833,445.167 321.833,445.833 316.5,446.5C 316.5,449.5 316.5,452.5 316.5,455.5C 317.978,455.238 319.311,455.571 320.5,456.5C 317.727,457.931 315.561,457.264 314,454.5C 313.501,450.179 313.334,445.846 313.5,441.5 Z"/></g>
<g><path style="opacity:1" fill="#1c1c1c" d="M 303.5,444.5 C 305.977,444.051 307.977,444.717 309.5,446.5C 302.956,446.953 303.123,448.619 310,451.5C 310.865,456.67 308.699,458.503 303.5,457C 302.692,456.692 302.025,456.192 301.5,455.5C 303.343,455.245 305.343,455.078 307.5,455C 307.957,454.586 308.291,454.086 308.5,453.5C 306.092,452.547 303.925,451.213 302,449.5C 301.387,447.505 301.887,445.838 303.5,444.5 Z"/></g>
<g><path style="opacity:1" fill="#1b1b1b" d="M 330.5,455.5 C 327.116,458.645 324.783,457.978 323.5,453.5C 324.469,450.013 326.802,448.68 330.5,449.5C 330.5,448.5 330.5,447.5 330.5,446.5C 328.326,446.92 326.326,446.92 324.5,446.5C 327.045,443.925 329.712,443.925 332.5,446.5C 333.764,450.153 333.764,453.82 332.5,457.5C 331.818,456.757 331.151,456.091 330.5,455.5 Z"/></g>
<g><path style="opacity:1" fill="#191919" d="M 339.5,444.5 C 342.482,444.104 345.149,444.771 347.5,446.5C 345.328,446.676 342.995,446.843 340.5,447C 337.401,450.973 338.235,453.806 343,455.5C 344.226,455.355 345.393,455.022 346.5,454.5C 347.711,455.274 347.711,456.107 346.5,457C 340.648,459.04 337.315,457.04 336.5,451C 336.84,448.489 337.84,446.322 339.5,444.5 Z"/></g>
<g><path style="opacity:1" fill="#1e1e1e" d="M 394.5,444.5 C 400.144,443.481 403.144,445.814 403.5,451.5C 400.102,451.18 396.768,451.513 393.5,452.5C 393.977,453.478 394.643,454.311 395.5,455C 397.761,455.239 399.761,455.406 401.5,455.5C 396.004,459.006 392.337,457.506 390.5,451C 391.205,448.458 392.539,446.292 394.5,444.5 Z"/></g>
<g><path style="opacity:1" fill="#202020" d="M 421.5,444.5 C 427.144,443.481 430.144,445.814 430.5,451.5C 427.102,451.18 423.768,451.513 420.5,452.5C 420.977,453.478 421.643,454.311 422.5,455C 424.936,454.947 427.269,455.113 429.5,455.5C 423.317,459.24 419.317,457.573 417.5,450.5C 418.432,448.235 419.765,446.235 421.5,444.5 Z"/></g>
<g><path style="opacity:1" fill="#1d1d1d" d="M 444.5,444.5 C 450.02,443.684 453.353,446.017 454.5,451.5C 450.9,458.454 446.4,459.121 441,453.5C 440.333,451.833 440.333,450.167 441,448.5C 442.376,447.295 443.542,445.962 444.5,444.5 Z"/></g>
<g><path style="opacity:1" fill="#111111" d="M 267.5,455.5 C 265.201,458.002 262.701,458.002 260,455.5C 259.175,451.789 259.341,448.122 260.5,444.5C 261.24,447.836 261.906,451.17 262.5,454.5C 264.045,455.452 265.712,455.785 267.5,455.5 Z"/></g>
<g><path style="opacity:1" fill="#090909" d="M 267.5,455.5 C 268.1,451.871 268.767,448.204 269.5,444.5C 270.833,448.833 270.833,453.167 269.5,457.5C 268.818,456.757 268.151,456.091 267.5,455.5 Z"/></g>
<g><path style="opacity:1" fill="#1b1b1b" d="M 354.5,451.5 C 354.5,451.167 354.5,450.833 354.5,450.5C 355.702,448.608 357.035,446.774 358.5,445C 359.5,444.333 360.5,444.333 361.5,445C 359.649,446.684 357.982,448.517 356.5,450.5C 358.167,452.5 359.833,454.5 361.5,456.5C 358.562,456.31 356.229,454.643 354.5,451.5 Z"/></g>
<g><path style="opacity:1" fill="#1b1b1b" d="M 404.5,444.5 C 405.496,444.414 406.329,444.748 407,445.5C 407.885,448 409.052,450.333 410.5,452.5C 412.167,449.833 413.833,447.167 415.5,444.5C 415.833,445 416.167,445.5 416.5,446C 414.837,449.649 413.171,453.316 411.5,457C 410.668,457.688 410.002,457.521 409.5,456.5C 407.269,452.708 405.602,448.708 404.5,444.5 Z"/></g>
<g><path style="opacity:1" fill="#0f0f0f" d="M 457.5,444.5 C 460.403,444.907 463.403,445.074 466.5,445C 470.096,448.272 470.429,451.938 467.5,456C 464.986,457.252 462.32,457.752 459.5,457.5C 459.785,459.288 459.452,460.955 458.5,462.5C 457.504,456.537 457.171,450.537 457.5,444.5 Z"/></g>
<g><path style="opacity:1" fill="#161616" d="M 487.5,444.5 C 489.858,445.114 492.192,445.447 494.5,445.5C 492.807,446.228 491.307,447.228 490,448.5C 489.821,451.553 489.321,454.553 488.5,457.5C 487.508,453.217 487.174,448.884 487.5,444.5 Z"/></g>
<g><path style="opacity:1" fill="#646464" d="M 248.5,446.5 C 251.167,446.5 253.833,446.5 256.5,446.5C 256.5,447.5 256.5,448.5 256.5,449.5C 253.833,449.5 251.167,449.5 248.5,449.5C 250.631,448.686 252.964,448.186 255.5,448C 252.964,447.814 250.631,447.314 248.5,446.5 Z"/></g>
<g><path style="opacity:1" fill="#e3e3e3" d="M 422.5,446.5 C 424.665,446.116 426.332,446.783 427.5,448.5C 425.167,449.833 422.833,449.833 420.5,448.5C 421.243,447.818 421.909,447.151 422.5,446.5 Z"/></g>
<g><path style="opacity:1" fill="#f0f0f0" d="M 445.5,446.5 C 451.643,447.026 452.976,449.86 449.5,455C 444.504,455.664 442.67,453.498 444,448.5C 444.717,447.956 445.217,447.289 445.5,446.5 Z"/></g>
<g><path style="opacity:1" fill="#e5e5e5" d="M 462.5,446.5 C 466.976,446.822 468.476,449.156 467,453.5C 464.925,455.648 462.592,455.982 460,454.5C 459.503,452.19 459.337,449.857 459.5,447.5C 460.791,447.737 461.791,447.404 462.5,446.5 Z"/></g>
<g><path style="opacity:1" fill="#181818" d="M 475.5,444.5 C 481.434,443.283 484.434,445.616 484.5,451.5C 481.102,451.18 477.768,451.513 474.5,452.5C 474.977,453.478 475.643,454.311 476.5,455C 478.995,455.157 481.328,455.324 483.5,455.5C 475.347,459.192 471.847,456.526 473,447.5C 474.045,446.627 474.878,445.627 475.5,444.5 Z"/></g>
<g><path style="opacity:1" fill="#eaeaea" d="M 476.5,446.5 C 478.665,446.116 480.332,446.783 481.5,448.5C 479.5,449.833 477.5,449.833 475.5,448.5C 475.863,447.817 476.196,447.15 476.5,446.5 Z"/></g>
<g><path style="opacity:1" fill="#dedede" d="M 394.5,446.5 C 396.977,446.051 398.977,446.717 400.5,448.5C 398.167,449.833 395.833,449.833 393.5,448.5C 393.863,447.817 394.196,447.15 394.5,446.5 Z"/></g>
<g><path style="opacity:1" fill="#232323" d="M 291.5,448.5 C 293.924,448.192 296.257,448.526 298.5,449.5C 297.333,449.833 296.167,450.167 295,450.5C 293.319,450.392 292.152,449.725 291.5,448.5 Z"/></g>
<g><path style="opacity:1" fill="#d3d3d3" d="M 330.5,455.5 C 329.127,455.657 327.793,455.49 326.5,455C 325.549,454.282 325.383,453.449 326,452.5C 329.946,450.64 331.446,451.64 330.5,455.5 Z"/></g>
</svg>
